<svg width="40" height="40" viewBox="0 0 40 40" fill="none" xmlns="http://www.w3.org/2000/svg">
<path d="M15.6872 10.1038C13.4429 9.80574 8.9212 12.9605 6.9409 14.5751C3.31033 17.5353 1.00002 20.5368 1 25.7533C0.999968 34.7133 10.4064 36 20.1429 36C29.8794 36 36.8104 34.6959 38.6257 29.6657C40.441 24.6355 35.1602 20.7231 33.3449 18.3012C31.5296 15.8793 35.3252 12.3395 33.3449 7.49558C31.3646 2.6517 27.8991 11.2217 25.4237 10.1038C22.9483 8.98599 20.803 10.1038 20.1429 11.2217C19.4828 12.3395 18.4926 10.4764 15.6872 10.1038Z" fill="#F6E24A"/>
<path d="M17.7954 27.0539C17.3996 26.7423 16.2963 25.8956 15.9554 25.716L15.8418 25.6574C14.8631 25.1406 13.386 24.3598 12.2058 25.4448L11.7109 24.906C13.2724 23.4692 15.1674 24.4735 16.1863 25.0123L16.2963 25.0709C16.7545 25.3128 18.096 26.3611 18.2463 26.4784L17.7918 27.0539H17.7954Z" fill="#171719"/>
<path d="M30.8692 21.9555C31.0656 21.9555 31.2248 21.7963 31.2248 21.5999C31.2248 21.4036 31.0656 21.2444 30.8692 21.2444C30.6729 21.2444 30.5137 21.4036 30.5137 21.5999C30.5137 21.7963 30.6729 21.9555 30.8692 21.9555Z" fill="#171719"/>
<path d="M29.1465 21.3653C29.1465 21.5633 29.0219 21.7209 28.8716 21.7209C28.7213 21.7209 28.5967 21.5596 28.5967 21.3653C28.5967 21.1711 28.7213 21.1088 28.8716 21.1088C29.0219 21.1088 29.1465 21.1674 29.1465 21.3653Z" fill="#171719"/>
<path d="M15.4453 25.291C15.4453 25.4889 15.3207 25.6465 15.1704 25.6465C15.0201 25.6465 14.8955 25.4853 14.8955 25.291C14.8955 25.0967 15.0201 25.0344 15.1704 25.0344C15.3207 25.0344 15.4453 25.0931 15.4453 25.291Z" fill="#171719"/>
<path d="M13.5801 24.7338C13.5801 24.9317 13.4555 25.0893 13.3052 25.0893C13.1549 25.0893 13.0303 24.9281 13.0303 24.7338C13.0303 24.5395 13.1549 24.4772 13.3052 24.4772C13.4555 24.4772 13.5801 24.5359 13.5801 24.7338Z" fill="#171719"/>
<path d="M12.2383 25.8224C12.2383 26.0204 12.1137 26.178 11.9634 26.178C11.8131 26.178 11.6885 26.0167 11.6885 25.8224C11.6885 25.6282 11.8131 25.5659 11.9634 25.5659C12.1137 25.5659 12.2383 25.6245 12.2383 25.8224Z" fill="#171719"/>
<path d="M26.5187 21.0245C26.6159 21.0245 26.6946 20.9228 26.6946 20.7973C26.6946 20.6718 26.6159 20.57 26.5187 20.57C26.4215 20.57 26.3428 20.6718 26.3428 20.7973C26.3428 20.9228 26.4215 21.0245 26.5187 21.0245Z" fill="#171719"/>
<path d="M28.2778 20.2108C28.4297 20.2108 28.5527 20.0516 28.5527 19.8552C28.5527 19.6589 28.4297 19.4997 28.2778 19.4997C28.126 19.4997 28.0029 19.6589 28.0029 19.8552C28.0029 20.0516 28.126 20.2108 28.2778 20.2108Z" fill="#171719"/>
<path d="M16.9956 16.3267C17.1712 16.2343 17.2134 15.9691 17.0898 15.7345C16.9663 15.4998 16.7239 15.3845 16.5483 15.4769C16.3728 15.5693 16.3306 15.8344 16.4541 16.0691C16.5776 16.3037 16.8201 16.4191 16.9956 16.3267Z" fill="#171719"/>
<path d="M11.9161 17.1135C12.1124 17.1135 12.2716 16.9544 12.2716 16.758C12.2716 16.5616 12.1124 16.4025 11.9161 16.4025C11.7197 16.4025 11.5605 16.5616 11.5605 16.758C11.5605 16.9544 11.7197 17.1135 11.9161 17.1135Z" fill="#171719"/>
<path d="M14.13 16.9853C14.2272 16.9853 14.306 16.8835 14.306 16.758C14.306 16.6325 14.2272 16.5308 14.13 16.5308C14.0329 16.5308 13.9541 16.6325 13.9541 16.758C13.9541 16.8835 14.0329 16.9853 14.13 16.9853Z" fill="#171719"/>
<path d="M14.3058 26.101C14.403 26.101 14.4818 25.9992 14.4818 25.8737C14.4818 25.7482 14.403 25.6465 14.3058 25.6465C14.2087 25.6465 14.1299 25.7482 14.1299 25.8737C14.1299 25.9992 14.2087 26.101 14.3058 26.101Z" fill="#171719"/>
<path d="M16.3654 16.1275C16.4626 16.1275 16.5413 16.0257 16.5413 15.9002C16.5413 15.7747 16.4626 15.673 16.3654 15.673C16.2682 15.673 16.1895 15.7747 16.1895 15.9002C16.1895 16.0257 16.2682 16.1275 16.3654 16.1275Z" fill="#171719"/>
<path d="M13.855 15.4641C14.0068 15.4641 14.1299 15.305 14.1299 15.1086C14.1299 14.9122 14.0068 14.7531 13.855 14.7531C13.7032 14.7531 13.5801 14.9122 13.5801 15.1086C13.5801 15.305 13.7032 15.4641 13.855 15.4641Z" fill="#171719"/>
<path d="M15.9155 15.2735C16.0674 15.2735 16.1904 15.1143 16.1904 14.9179C16.1904 14.7216 16.0674 14.5624 15.9155 14.5624C15.7637 14.5624 15.6406 14.7216 15.6406 14.9179C15.6406 15.1143 15.7637 15.2735 15.9155 15.2735Z" fill="#171719"/>
<path d="M16.4645 17.5937C16.5576 17.5937 16.6331 17.5182 16.6331 17.4251C16.6331 17.332 16.5576 17.2565 16.4645 17.2565C16.3714 17.2565 16.2959 17.332 16.2959 17.4251C16.2959 17.5182 16.3714 17.5937 16.4645 17.5937Z" fill="#171719"/>
<path d="M34.4247 24.9757C34.3111 24.6861 33.9775 24.0483 33.0832 23.4839C32.9329 23.3886 32.7973 23.11 32.6543 22.8131C32.4784 22.4502 32.2805 22.0397 31.9433 21.7062C31.6207 21.3836 31.2578 21.1674 30.9389 20.9768C30.5834 20.7678 30.2792 20.5846 30.1289 20.317C29.4508 19.1148 27.981 18.8289 27.4239 18.7226C27.3469 18.7079 27.2919 18.6969 27.2663 18.6933C26.7934 18.5027 24.7482 19.2027 22.7286 20.9621C22.428 21.226 21.9588 21.1527 21.7572 20.8082C20.588 18.8325 20.3571 18.6823 20.1811 18.6603C19.9172 18.5466 18.7297 17.678 18.5647 17.5313C18.5427 17.5094 18.5061 17.4617 18.4548 17.3957C18.1908 17.0658 17.696 16.4464 17.2892 16.2045C17.2195 16.1348 17.1206 15.8013 17.0583 15.5814C16.842 14.8446 16.5158 13.734 15.4162 13.866C13.8987 14.0603 12.5242 14.7897 11.7398 15.816C11.344 16.3364 11.1974 16.3438 11.0104 16.3584C10.8308 16.3694 10.5852 16.3878 10.2773 16.626C10.2004 16.6883 10.1161 16.747 10.0318 16.8056C9.48197 17.1941 8.79655 17.678 8.25407 19.287C7.69694 20.9365 4.90761 23.7075 4.88195 23.7368L4.8343 23.7918C4.70235 23.986 3.55876 25.7417 3.85565 26.999C3.95095 27.4021 4.19286 27.7247 4.55207 27.9263C4.98458 28.1719 5.03223 28.2965 5.05422 28.3478C5.1092 28.4907 5.21183 28.663 5.50139 28.696C5.61868 28.7107 5.75797 28.7107 5.90092 28.707C6.0292 28.707 6.2418 28.707 6.30411 28.729L6.38108 28.762L6.612 28.7547C6.32243 29.0772 6.1355 29.3998 6.11717 29.6673C6.09885 29.9642 6.26379 30.2061 6.54968 30.3014C7.65662 30.6716 8.7489 30.8512 9.87783 30.8512C10.3653 30.8512 10.8638 30.8439 11.4319 30.8402C12.1723 30.8329 13.03 30.8219 14.126 30.8219C14.3312 30.8219 16.2042 30.8329 18.583 31.2214C19.9649 31.4487 20.9472 31.4853 22.1531 31.4853C22.4427 31.4853 22.7432 31.4853 23.0658 31.4817C23.447 31.4817 23.8611 31.4743 24.3193 31.4743C25.4263 31.4743 27.6108 31.0162 28.2119 30.4774C28.7507 30.3381 32.1229 30.1585 34.4247 30.0705C34.7253 30.0815 36.7375 30.1402 37.5512 29.3558C37.7895 29.1249 37.9178 28.8353 37.9141 28.5164C37.9031 27.3692 35.3667 25.5951 34.421 24.9757H34.4247ZM6.35542 27.9923C6.24913 27.9776 6.1355 27.9739 6.02554 27.9739C5.98155 27.9739 5.93757 27.9739 5.89359 27.9739C5.82394 27.9739 5.7543 27.9739 5.68833 27.9739C5.58936 27.7797 5.39876 27.5634 4.91127 27.2885C4.728 27.1822 4.61804 27.0393 4.56673 26.8303C4.3798 26.046 5.10187 24.7154 5.42076 24.2316C5.73598 23.9164 8.3567 21.2663 8.94683 19.5216C9.41233 18.1398 9.96579 17.7476 10.4533 17.4031C10.5486 17.3371 10.6402 17.2711 10.7282 17.2051C10.8565 17.1062 10.9225 17.1025 11.0581 17.0915C11.4209 17.0658 11.7691 16.9889 12.3226 16.2631C13.1107 15.2332 14.4852 14.7273 15.5078 14.5954C15.911 14.5367 16.1016 14.9399 16.3508 15.7903C16.4938 16.2705 16.6037 16.648 16.8933 16.8239C17.2012 17.0109 17.6777 17.601 17.8793 17.8539C17.9599 17.9529 18.0149 18.0225 18.0406 18.0445C18.0516 18.0555 19.3894 19.1258 19.9356 19.3457C20.1298 19.5546 20.7419 20.5369 21.354 21.5816C21.3101 21.8821 21.2807 22.0837 21.2368 22.3843C21.2368 22.3843 21.2368 22.3843 21.2331 22.3843C21.1488 22.4612 21.0608 22.5345 20.9729 22.6042C20.8959 22.6665 20.8226 22.7288 20.7456 22.7911C20.6576 22.8608 20.5697 22.9231 20.4854 22.9891C20.4084 23.044 20.3351 23.1027 20.2581 23.154C20.1701 23.2163 20.0822 23.2713 19.9979 23.3299C19.9246 23.3812 19.8476 23.4289 19.7743 23.4765C19.6863 23.5315 19.602 23.5828 19.514 23.6342C19.4407 23.6781 19.3674 23.7221 19.2978 23.7624C19.2098 23.8138 19.1218 23.8614 19.0375 23.9091C18.9716 23.9457 18.9056 23.986 18.8396 24.019C18.748 24.0703 18.66 24.1143 18.572 24.162C18.5171 24.1913 18.4584 24.2243 18.4034 24.2499C18.2642 24.3232 18.1285 24.3892 18.0002 24.4552C17.8097 24.5505 17.641 24.6385 17.4834 24.7228C17.2672 24.8327 17.1059 24.9024 16.7467 25.0197C16.5084 25.0563 16.4498 25.1333 16.2959 25.0526L16.1859 24.994C16.0136 24.9024 15.8157 24.7997 15.5994 24.6934C15.4162 24.6055 15.2219 24.5175 15.013 24.4405C14.9837 24.4295 14.9543 24.4222 14.925 24.4112C14.8627 24.3892 14.8004 24.3672 14.7344 24.3452C14.7161 24.3416 14.7014 24.3342 14.6831 24.3306C14.6061 24.3049 14.5255 24.2829 14.4485 24.2646C14.4302 24.2609 14.4119 24.2573 14.3935 24.2536C14.3129 24.2353 14.2359 24.2169 14.1553 24.2023C14.0673 24.1876 13.9794 24.1766 13.8877 24.1656C13.8584 24.1656 13.8291 24.162 13.8034 24.1583C13.7411 24.1546 13.6751 24.151 13.6128 24.151C13.5798 24.151 13.5468 24.151 13.5175 24.151C13.4369 24.151 13.3526 24.1583 13.2719 24.1656C13.2353 24.1693 13.2023 24.1766 13.1656 24.1803C13.107 24.1876 13.0484 24.1986 12.9897 24.2133C12.9457 24.2243 12.9017 24.2353 12.8614 24.2463C12.8138 24.2609 12.7661 24.2756 12.7185 24.2903C12.6745 24.3049 12.6305 24.3196 12.5865 24.3379C12.5059 24.3709 12.4289 24.4039 12.3483 24.4479C12.3373 24.4515 12.3263 24.4552 12.319 24.4625C12.297 24.4735 12.275 24.4918 12.253 24.5065C12.165 24.5578 12.077 24.6128 11.9891 24.6751C11.8974 24.7411 11.8095 24.8107 11.7215 24.8914C11.6592 24.95 11.6042 25.027 11.4723 25.2176C11.113 25.7417 10.27 26.9623 9.2877 27.1492C8.71591 27.1749 8.20276 27.3911 7.78491 27.655C7.45136 27.8676 7.07016 27.9959 6.67431 28.0106C6.56801 28.0143 6.46538 27.9996 6.36275 27.9813L6.35542 27.9923ZM37.0454 28.828C36.5909 29.2678 35.2091 29.3741 34.4467 29.3374H34.432H34.4174C31.9652 29.4291 30.4295 29.5207 29.4581 29.6014C28.8864 29.649 28.3695 29.3118 28.1459 28.784C27.9444 28.3185 27.5925 27.9226 26.9987 27.897C26.8594 27.8237 26.4636 27.5304 26.1703 27.3142C25.4519 26.7864 24.9204 26.4015 24.5759 26.2769C24.0847 26.0973 23.4616 26.5078 22.5599 27.1602C22.2997 27.3472 21.9515 27.6001 21.8159 27.6514C21.6473 27.6441 21.4933 27.754 21.4457 27.9226C21.3907 28.1169 21.508 28.3185 21.7023 28.3735C22.0028 28.4541 22.3144 28.2452 22.9888 27.754C23.3517 27.4901 24.1177 26.9513 24.323 26.966C24.5942 27.0649 25.254 27.5524 25.7341 27.9043C26.5442 28.4981 26.7348 28.6264 26.9364 28.6264C27.6145 28.6264 27.6365 29.9056 27.6365 29.9202C27.6365 29.9459 27.6475 29.9679 27.6511 29.9899C27.2369 30.2575 25.5289 30.7376 24.323 30.7376C23.8612 30.7376 23.447 30.7376 23.0621 30.7449C21.376 30.7596 20.3571 30.7669 18.704 30.4957C16.2665 30.0962 14.3422 30.0852 14.1296 30.0852C13.03 30.0852 12.1687 30.0962 11.4246 30.1035C10.8601 30.1108 10.3617 30.1145 9.87783 30.1145C8.98348 30.1145 8.11846 29.9935 7.24244 29.7443C7.04084 29.6893 6.9712 29.4364 7.11048 29.2825C7.55766 28.773 8.51065 28.0509 9.41233 27.8786C10.7282 27.809 11.6738 26.2989 12.0807 25.6501C12.1467 25.5438 12.1943 25.4632 12.2127 25.4412C13.3929 24.3562 14.87 25.137 15.8487 25.6538L15.9623 25.7124C16.2995 25.892 17.4028 26.7387 17.8023 27.0503C17.8683 27.1016 17.9489 27.1272 18.0296 27.1272C18.1395 27.1272 18.2458 27.0796 18.3191 26.988C18.4438 26.8303 18.4181 26.5994 18.2568 26.4748C18.1725 26.4088 17.7327 26.0643 17.2782 25.7271C17.3991 25.6281 17.6264 25.4962 17.8756 25.3642C17.883 25.3642 17.8903 25.3569 17.894 25.3532C17.9379 25.3312 17.9819 25.3056 18.0296 25.2836C18.0442 25.2762 18.0589 25.2689 18.0736 25.2616C18.1102 25.2432 18.1505 25.2213 18.1872 25.2029C18.2385 25.1773 18.2935 25.1479 18.3411 25.1223C19.3967 24.5871 20.9948 23.7771 22.351 22.344C23.0584 21.5999 23.7805 21.0244 24.4439 20.5846C24.4659 20.6799 24.5136 20.7642 24.5942 20.8082C24.7702 20.8998 25.0121 20.7862 25.133 20.5516C25.21 20.4086 25.2137 20.2584 25.1733 20.1374C26.1227 19.6059 26.8484 19.3933 27.039 19.3897C27.1013 19.408 27.1746 19.4227 27.2883 19.4447C27.7941 19.5436 28.9816 19.7745 29.4948 20.6799C29.7404 21.1197 30.1656 21.369 30.5724 21.6109C30.8693 21.7868 31.1735 21.9664 31.4338 22.2267C31.694 22.4869 31.8443 22.8095 32.0019 23.1357C32.1925 23.5279 32.3721 23.8981 32.6983 24.1033C33.6 24.6715 33.7649 25.2726 33.7686 25.2946L33.8016 25.4375L33.9262 25.5181C35.4913 26.5335 37.1847 27.9703 37.192 28.5201C37.192 28.641 37.1517 28.7327 37.0564 28.8243L37.0454 28.828Z" fill="#171719"/>
<path d="M20.3164 27.974C20.2871 27.974 20.2541 27.974 20.2248 27.963C19.0445 27.6624 18.8979 27.5378 18.8393 27.4901C18.6853 27.3618 18.6633 27.1309 18.7916 26.9733C18.9162 26.823 19.1325 26.7974 19.2901 26.911C19.4111 26.9733 19.9572 27.1346 20.4044 27.2482C20.6023 27.2995 20.7196 27.4975 20.6683 27.6954C20.6243 27.8603 20.4777 27.9703 20.3127 27.9703L20.3164 27.974Z" fill="#171719"/>
<path d="M27.4752 19.1148C27.4349 19.1148 27.3909 19.1075 27.3506 19.0928C27.16 19.0231 27.0611 18.8142 27.1307 18.6236C27.4093 17.8576 27.6109 16.659 27.259 16.3988C27.0977 16.2778 27.0611 16.0505 27.182 15.8856C27.303 15.7207 27.5302 15.6877 27.6952 15.8086C28.6335 16.4977 27.9664 18.4843 27.8235 18.8765C27.7685 19.0268 27.6292 19.1184 27.4789 19.1184L27.4752 19.1148Z" fill="#171719"/>
<path d="M28.384 15.9516L28.2557 15.728C28.2264 15.6767 27.5336 14.4488 27.9112 13.3199C28.1091 12.7334 28.5489 12.2899 29.216 12.004C30.268 11.5532 30.7261 11.0437 30.9277 10.6955C31.0524 10.4755 31.2869 10.3546 31.5362 10.3766C31.7891 10.3986 31.998 10.5598 32.0823 10.7944C32.4195 11.7328 32.6798 13.0523 32.0127 14.0273C31.0194 15.4751 28.7322 15.8893 28.6332 15.9039L28.3803 15.9479L28.384 15.9516ZM31.4592 11.2269C31.166 11.6558 30.5979 12.2093 29.5056 12.6784C29.0291 12.88 28.7359 13.1696 28.6076 13.5544C28.417 14.1226 28.6332 14.7823 28.7798 15.1269C29.37 14.9803 30.7701 14.5478 31.4116 13.6168C31.8844 12.9277 31.6755 11.8904 31.4592 11.2306V11.2269Z" fill="#171719"/>
<path d="M28.7763 15.6181C28.6883 15.6181 28.6004 15.5888 28.5307 15.5265C28.3804 15.3908 28.3658 15.1599 28.5014 15.0096L30.0921 13.2319C30.2278 13.0817 30.4587 13.067 30.609 13.2026C30.7592 13.3382 30.7739 13.5692 30.6383 13.7194L29.0475 15.4971C28.9742 15.5778 28.8753 15.6181 28.7726 15.6181H28.7763Z" fill="#171719"/>
<path d="M27.816 16.3255V16.0689C27.8087 16.0103 27.7757 14.5991 26.8704 13.8257C26.4012 13.4225 25.7964 13.2686 25.0744 13.3639C23.9381 13.5178 23.282 13.3163 22.9338 13.1183C22.7139 12.9937 22.45 13.012 22.2484 13.1586C22.0431 13.3053 21.9478 13.5508 21.9955 13.8001C22.1861 14.7787 22.6406 16.0469 23.7145 16.5418C25.3089 17.2748 27.4862 16.4575 27.5778 16.4208L27.8197 16.3292L27.816 16.3255ZM22.7542 13.8514C23.227 14.0677 24.0004 14.2546 25.1733 14.0933C25.6865 14.0237 26.086 14.119 26.3939 14.3829C26.8484 14.7714 27.0023 15.4495 27.0537 15.8197C26.4745 15.9956 25.0487 16.3438 24.0187 15.8747C23.26 15.5265 22.9081 14.5258 22.7542 13.8514Z" fill="#171719"/>
<path d="M27.3135 16.3072C27.3868 16.2632 27.4491 16.1899 27.4748 16.102C27.5334 15.9077 27.4271 15.7025 27.2329 15.6438L24.9567 14.9327C24.7624 14.8741 24.5572 14.9804 24.4985 15.1746C24.4399 15.3689 24.5462 15.5742 24.7404 15.6328L27.0166 16.3439C27.1193 16.3769 27.2255 16.3585 27.3135 16.3072Z" fill="#171719"/>
<path d="M25.7824 32.8452C25.1557 33.0285 24.4996 33.0688 23.8545 32.9808C23.4146 32.9222 22.9931 32.8892 22.9491 32.8855C22.2124 32.8562 20.5153 32.1635 20.3137 32.3101C20.0938 32.4677 14.2806 33.3291 13.5805 33.2557C11.5096 33.0358 11.319 32.2368 10.1974 32.1122C9.07577 31.9875 8.29505 31.7053 8.10812 31.6137C7.95051 31.533 6.47337 30.3491 6.07018 30.0742C5.99321 30.0192 5.90891 29.9863 5.81361 29.9716C5.34444 29.9019 4.6297 29.5904 4.39145 29.4328C4.05057 29.2055 3.96993 28.861 4.01392 28.6227C4.03591 28.4945 3.84165 28.2086 5.21982 27.9337V28.0436L5.09886 27.9337C5.20516 28.029 5.62667 28.3405 5.77329 28.3442L7.04883 28.3955L7.14779 28.74L6.92054 29.0516C6.68596 29.3741 6.80692 29.8286 7.17345 29.9863C7.82222 30.2648 8.84852 30.5984 9.88948 30.4847C11.6049 30.2978 17.2348 30.3491 19.0859 31.1188C20.9369 31.8886 27.2926 30.4334 27.7984 30.3235C27.8204 30.3198 27.8424 30.3161 27.8644 30.3125L31.4491 29.9239H35.3967C35.3967 29.9239 34.1505 30.1805 33.6593 30.58C33.531 30.6827 33.3954 30.7743 33.2378 30.8183L25.7971 32.8452H25.7824Z" fill="#171719"/>
</svg>
