<svg width="40" height="41" viewBox="0 0 40 41" fill="none" xmlns="http://www.w3.org/2000/svg">
<path d="M9.35791 5.71528C9.06433 7.32996 8.13467 11.5257 7.70653 13.4217C6.33926 19.4768 5.13773 19.0422 5.1377 25.3483C5.13765 33.7887 12.9232 39.8849 20.9175 38.7428C28.6239 37.6419 31.0093 33.9722 32.8441 29.2015C34.679 24.4309 33.3946 27.3667 35.046 24.7979C35.9444 23.4002 37.0643 21.3116 37.0643 20.0272C37.0643 16.908 37.4313 15.2566 36.3304 12.5043C34.1657 7.09277 32.1102 13.7887 30.2753 8.28408C28.095 1.74313 25.0541 3.97922 20.9175 0.394188C18.1652 -1.99116 20.3671 7.1832 15.7799 8.28408C13.7456 8.7723 9.72488 3.69693 9.35791 5.71528Z" fill="#ED474A"/>
<path d="M19.9982 35.6188C19.3311 35.6188 18.6604 35.5565 18.0116 35.4319C17.3555 35.3073 16.7104 35.1203 16.0946 34.8711C15.4752 34.6255 14.8777 34.3176 14.3169 33.9584C14.1447 33.8485 14.097 33.6212 14.207 33.4526C14.3169 33.284 14.5442 33.2327 14.7128 33.3426C15.2333 33.6762 15.7904 33.9621 16.3659 34.193C16.9413 34.4203 17.5424 34.5962 18.1509 34.7135C19.4741 34.9664 20.8743 34.9407 22.1901 34.6438C22.9049 34.4826 23.6049 34.237 24.2684 33.9181C24.9281 33.5992 25.5549 33.2034 26.1304 32.7452C26.7058 32.287 27.23 31.7629 27.6881 31.1874C28.1463 30.612 28.5422 29.9852 28.8611 29.3254C29.1799 28.6657 29.4255 27.9656 29.5868 27.2472C29.7481 26.5324 29.8324 25.7957 29.8324 25.0589L29.4219 20.1071C29.3962 19.7772 29.0956 19.5646 28.7658 19.5976C28.7658 19.5976 28.7621 19.5976 28.7584 19.5976C28.5092 19.6232 28.1243 19.5682 27.7395 19.187C27.3583 18.8059 27.032 18.1791 26.7535 17.2627C26.5812 16.7019 26.2073 15.9176 26.0681 15.1515C25.9398 14.4294 25.9398 13.81 25.6392 13.0769C25.357 12.3988 24.9978 11.7097 24.5726 11.0353C24.1731 10.3975 23.7112 9.77076 23.2017 9.16964C23.0002 8.93139 22.9488 8.77378 22.8022 8.85808C22.6849 9.03769 22.7546 9.07801 22.8022 9.3859C22.9378 10.2729 22.9378 11.0866 22.7949 11.7977C22.619 12.692 22.3477 13.6047 21.622 13.9859C20.691 14.4807 20.2401 15.0709 19.5254 15.3348C18.6934 15.639 17.8393 15.694 16.9926 15.4924C16.025 15.2651 15.4349 14.8913 14.951 14.4954C14.8704 14.4294 14.7091 14.3488 14.4745 14.3744C14.2033 14.4734 14.3096 14.9206 14.097 15.4447C13.8478 16.0458 13.8551 16.7569 13.4922 17.3617C13.155 17.9262 12.4586 18.3917 12.0334 18.9378C11.5936 19.5059 11.2197 20.1327 10.9301 20.7998C10.6442 21.4559 10.4317 22.1523 10.3034 22.8744C10.0798 24.117 10.1751 25.0076 10.1751 25.015C10.1751 25.0296 10.1751 25.0443 10.1751 25.0553C10.1751 25.6491 10.2264 26.2392 10.3327 26.8183C10.439 27.3974 10.5966 27.9729 10.8019 28.5227C10.8715 28.7133 10.7762 28.9222 10.5893 28.9955C10.3987 29.0688 10.1897 28.9699 10.1164 28.7829C9.89285 28.1928 9.72424 27.577 9.61062 26.9503C9.50066 26.3382 9.44201 25.7077 9.44201 25.0773C9.42735 24.9197 9.35038 24.0033 9.5813 22.7461C9.72058 21.9691 9.94783 21.214 10.2594 20.5066C10.5746 19.7845 10.9778 19.1064 11.4543 18.4906C11.8611 17.9665 12.2277 17.4277 12.5502 16.8889C12.8911 16.3134 13.1843 15.7343 13.4189 15.1662C13.8698 14.0702 13.9541 13.3775 13.9541 13.3701C13.9724 13.2235 14.075 13.1026 14.2143 13.0622C14.3536 13.0183 14.5075 13.0659 14.6028 13.1795C14.6028 13.1795 14.8337 13.4581 15.2259 13.7807C15.6475 14.1289 16.3292 14.5834 17.1612 14.7813C17.8687 14.9499 18.5797 14.9023 19.2762 14.6493C19.8993 14.4221 20.5224 14.0189 21.1272 13.4544C21.611 12.9999 21.9335 12.3988 22.0802 11.6584C22.2048 11.028 22.2048 10.3022 22.0802 9.49952C21.8969 8.31928 21.5047 7.38828 21.501 7.37728C21.435 7.21967 21.4827 7.04007 21.622 6.93744C21.7576 6.83847 21.9445 6.84214 22.0765 6.9521C22.1095 6.97776 22.8499 7.6082 23.7699 8.69314C24.3014 9.31992 24.7815 9.97602 25.1994 10.6431C25.6465 11.3542 26.0241 12.0763 26.321 12.7947C26.6435 13.5754 26.8781 14.3634 27.0174 15.1368C27.1493 15.8736 27.2959 16.515 27.4609 17.0465C27.7614 18.0251 28.0657 18.4686 28.2636 18.6666C28.4872 18.8902 28.6448 18.8755 28.6961 18.8682C28.9454 18.8462 29.2056 18.5859 29.3669 18.355C29.4548 18.2267 29.6125 18.1681 29.7627 18.2084C29.913 18.2487 30.023 18.377 30.034 18.531L30.5728 25.0296C30.5728 25.8507 30.4848 26.6424 30.3125 27.4121C30.1366 28.1818 29.8727 28.9332 29.5318 29.6443C29.1873 30.3554 28.7658 31.0298 28.2709 31.6456C27.7798 32.2614 27.2153 32.8258 26.5995 33.317C25.9801 33.8118 25.3057 34.2333 24.5982 34.5779C23.8872 34.9224 23.1358 35.1827 22.366 35.3586C21.6 35.5345 20.8083 35.6225 20.0166 35.6225L19.9982 35.6188Z" fill="#171719"/>
<path d="M12.7663 32.6134C12.671 32.6134 12.5794 32.5767 12.5061 32.5071C12.2055 32.2028 11.9159 31.8766 11.652 31.5394C11.3295 31.1252 11.0399 30.689 10.7834 30.2345C10.6844 30.0586 10.7467 29.835 10.9226 29.7361C11.0986 29.6371 11.3222 29.6994 11.4211 29.8753C11.6594 30.2968 11.9306 30.7037 12.2275 31.0886C12.4731 31.4038 12.7407 31.708 13.0229 31.9902C13.1658 32.1332 13.1658 32.3641 13.0229 32.5071C12.9496 32.5767 12.8579 32.6134 12.7626 32.6134H12.7663Z" fill="#171719"/>
<path d="M14.8261 30.744C14.8261 30.744 15.0313 31.6677 16.2922 32.7159C17.883 34.0355 19.723 34.0245 20.4707 33.9622C21.5227 33.8779 22.2154 33.9218 23.37 33.0275C24.5246 32.1332 24.8178 31.9059 25.4299 31.1545C26.5809 29.7433 26.6872 29.4941 26.4892 27.1556C26.3023 24.9417 24.3047 23.8495 24.1507 20.6716C23.9968 17.4937 22.8422 21.2397 22.8422 21.2397C22.8422 21.2397 21.6033 24.0401 21.0792 23.4169C20.555 22.7938 20.4524 21.3753 19.9832 21.2397C19.0192 20.9612 18.638 22.6472 18.4584 23.1127C17.9526 24.4139 16.3655 23.263 15.6031 23.5452C13.1327 24.4579 14.5438 30.0329 14.5438 30.0329" fill="#171719"/>
<path d="M10.4902 16.3612C10.4426 16.3612 10.3949 16.3502 10.3473 16.3319C10.1603 16.2549 10.0724 16.0386 10.153 15.8517L11.1243 13.5499V10.7532C11.1243 10.5516 11.2893 10.3867 11.4909 10.3867C11.6925 10.3867 11.8574 10.5516 11.8574 10.7532V13.6965L10.8311 16.1339C10.7724 16.2732 10.6368 16.3575 10.4939 16.3575L10.4902 16.3612Z" fill="#171719"/>
<path d="M14.9325 11.2809C15.1471 11.2809 15.321 11.107 15.321 10.8924C15.321 10.6778 15.1471 10.5038 14.9325 10.5038C14.7179 10.5038 14.5439 10.6778 14.5439 10.8924C14.5439 11.107 14.7179 11.2809 14.9325 11.2809Z" fill="#171719"/>
<path d="M29.4364 16.0715C29.651 16.0715 29.8249 15.8976 29.8249 15.683C29.8249 15.4684 29.651 15.2945 29.4364 15.2945C29.2218 15.2945 29.0479 15.4684 29.0479 15.683C29.0479 15.8976 29.2218 16.0715 29.4364 16.0715Z" fill="#171719"/>
<path d="M26.4605 9.62418C26.3102 9.62418 26.1709 9.53255 26.116 9.38227L25.8667 8.69685C25.8521 8.65653 25.8447 8.61255 25.8447 8.57223V6.63692C25.8447 6.43533 26.0097 6.27039 26.2113 6.27039C26.4129 6.27039 26.5778 6.43533 26.5778 6.63692V8.50625L26.805 9.13303C26.8747 9.32363 26.7757 9.53255 26.5851 9.60219C26.5448 9.61685 26.5008 9.62418 26.4605 9.62418Z" fill="#171719"/>
<path d="M32.9692 20.8072C32.7933 20.8072 32.6393 20.6826 32.61 20.5066L32.1885 18.1535V18.0362L32.6063 15.2432C32.6356 15.0416 32.8226 14.9097 33.0242 14.9353C33.2258 14.9646 33.3614 15.1516 33.3321 15.3532L33.0205 17.4058C32.9545 17.8566 32.9582 18.3111 33.0388 18.7583L33.3284 20.3784C33.3651 20.5763 33.2331 20.7669 33.0315 20.8035C33.0095 20.8072 32.9875 20.8109 32.9655 20.8109L32.9692 20.8072Z" fill="#171719"/>
</svg>
