<svg width="40" height="40" viewBox="0 0 40 40" fill="none" xmlns="http://www.w3.org/2000/svg">
<path d="M35.9635 21.4679C34.4841 28.7005 36.9809 28.5702 35.0104 32.4223C34.5049 33.4106 33.4776 33.9948 32.3857 34.1956C28.4271 34.9234 30.9496 35.9514 25.8721 37.2477C17.2481 39.4496 3.66992 37.7982 3.8534 32.8441C4.03689 27.8899 11.3764 19.8166 7.70664 17.2477C4.03691 14.6789 2.38553 7.33947 7.70664 3.30278C13.0277 -0.73392 16.147 2.01837 18.8993 3.30278C21.6516 4.58718 26.4222 1.83489 33.3947 6.42204C40.3672 11.0092 37.6149 13.3945 35.9635 21.4679Z" fill="#CACACA"/>
<path d="M30.3377 8.23611C30.2717 8.12982 30.1544 8.06384 30.0261 8.06384H20.2946C20.159 8.06384 20.0344 8.13715 19.972 8.25811L10.6107 25.8958C10.5521 26.0094 10.5558 26.145 10.6217 26.255C10.6877 26.365 10.8087 26.4309 10.9369 26.4309H21.0277C21.2183 26.4309 21.3905 26.5409 21.4748 26.7095L21.6838 27.1383C21.7461 27.2666 21.878 27.3436 22.0136 27.3436C22.0686 27.3436 22.1236 27.3326 22.1749 27.3069C22.3582 27.219 22.4315 26.9991 22.3435 26.8158L22.0796 26.277C22.0136 26.1414 22.0136 25.9801 22.0796 25.8408L30.3597 8.58432C30.4146 8.4707 30.4073 8.33874 30.3377 8.23245V8.23611ZM21.0167 25.7015H12.3701C11.9962 25.7015 11.7543 25.302 11.9303 24.9685L20.3752 9.06082C20.4632 8.89954 20.6318 8.79691 20.8151 8.79691H28.6516C29.0181 8.79691 29.2601 9.17811 29.1024 9.51166L21.4675 25.4193C21.3832 25.5916 21.2109 25.7015 21.0167 25.7015Z" fill="#171719"/>
<path d="M13.8658 24.5725C13.8108 24.5725 13.7521 24.5615 13.7008 24.5322C13.5212 24.4406 13.4479 24.2206 13.5395 24.041L19.0082 13.2612C19.0999 13.0816 19.3198 13.0083 19.4994 13.1C19.679 13.1916 19.7523 13.4115 19.6607 13.5911L14.192 24.3709C14.126 24.4992 13.9977 24.5725 13.8658 24.5725Z" fill="#171719"/>
<path d="M19.9507 12.4988C19.8957 12.4988 19.8371 12.4879 19.7858 12.4585C19.6062 12.3669 19.5329 12.147 19.6245 11.9674L20.156 10.9191C20.2476 10.7395 20.4675 10.6662 20.6471 10.7578C20.8267 10.8494 20.9 11.0694 20.8084 11.249L20.2769 12.2973C20.211 12.4255 20.0827 12.4988 19.9507 12.4988Z" fill="#171719"/>
<path d="M33.8386 11.6558L30.2832 8.17004L29.77 8.69419L32.5337 11.4066C32.9039 11.7694 33.0139 12.3192 32.816 12.7957L24.8438 31.8372C24.7888 31.9728 24.5982 31.9728 24.5359 31.8372L22.9781 28.3441C22.8938 28.1609 22.6776 28.0766 22.4943 28.1572C22.311 28.2379 22.2267 28.4578 22.3074 28.641L23.8688 32.1451C23.9934 32.4237 23.7882 32.7389 23.4803 32.7389L10.4096 32.6839C9.8855 32.6839 9.51164 32.1781 9.66192 31.676L11.2783 26.2622C11.337 26.068 11.227 25.8627 11.0328 25.8077C10.8385 25.7491 10.6332 25.859 10.5783 26.0533L8.52199 32.9405C8.489 33.0505 8.511 33.1714 8.57697 33.2631C8.64661 33.3547 8.75291 33.4097 8.8702 33.4097L24.6972 33.4756C24.8218 33.4756 24.9354 33.4133 25.0051 33.3107C25.0161 33.2924 25.0271 33.2704 25.0344 33.2521L33.9082 12.0553C33.9669 11.916 33.9339 11.7584 33.8276 11.6521L33.8386 11.6558Z" fill="#171719"/>
<path d="M16.2717 10.1683C14.1385 10.8427 13.3394 11.7041 12.7383 14.0572C12.6284 14.4897 12.0162 14.4897 11.9063 14.0572C11.3052 11.7077 10.5061 10.8464 8.37288 10.1683C7.97336 10.0436 7.97336 9.47918 8.37288 9.3509C10.5061 8.67647 11.3052 7.81511 11.9063 5.46196C12.0162 5.02945 12.6284 5.02945 12.7383 5.46196C13.3394 7.81145 14.1385 8.67281 16.2717 9.3509C16.6712 9.47552 16.6712 10.04 16.2717 10.1683Z" fill="#171719"/>
<path d="M32.4564 29.2128C31.4814 29.539 31.0416 29.9862 30.7153 30.9685C30.6127 31.2764 30.1692 31.2764 30.0702 30.9685C29.7477 29.9862 29.3042 29.539 28.3292 29.2128C28.014 29.1065 28.014 28.6703 28.3292 28.564C29.3042 28.2378 29.744 27.7906 30.0702 26.8083C30.1729 26.5004 30.6164 26.5004 30.7153 26.8083C31.0379 27.7906 31.4814 28.2378 32.4564 28.564C32.7716 28.6703 32.7716 29.1065 32.4564 29.2128Z" fill="#171719"/>
</svg>
