<svg width="40" height="40" viewBox="0 0 40 40" fill="none" xmlns="http://www.w3.org/2000/svg">
<path d="M18.6715 2.22185L13.5783 7.15597C7.70672 13.0275 6.23879 21.8349 6.97274 25.8716C3.67002 27.8899 3.5476 31.1927 5.13788 33.7615C7.1438 37.0017 9.96968 36.3914 12.1104 34.8624C20.1837 39.633 26.7893 37.9817 32.6608 32.4771C37.3581 28.0734 34.618 19.0214 32.6608 15.0459C36.514 13.578 36.3305 7.70643 31.5599 4.22019C27.7434 1.4312 25.199 4.526 24.4039 6.42202L20.216 2.23411C19.7909 1.80899 19.1033 1.80353 18.6715 2.22185Z" fill="#5B72B7"/>
<path d="M20.6323 33.9008C15.0389 33.9008 10.4902 29.3521 10.4902 23.7588C10.4902 19.2247 16.6334 6.30068 19.595 5.93415C19.9835 5.8865 20.6763 5.99279 20.9878 7.22435C21.6476 9.84874 23.165 11.9746 24.4186 13.5361C24.5469 13.6937 24.5212 13.9246 24.3636 14.0529C24.206 14.1775 23.9751 14.1555 23.8468 13.9943C22.5492 12.3742 20.9915 10.8127 20.2951 8.05639C20.0971 7.26467 19.8002 7.30132 19.7049 7.31232C17.3334 7.60555 11.2233 19.2577 11.2233 23.7588C11.2233 28.9489 15.4458 33.1677 20.6323 33.1677C25.8187 33.1677 30.0412 28.9452 30.0412 23.7588C30.0412 21.6548 28.707 19.7525 27.2666 18.0078C27.1383 17.8502 27.1603 17.6193 27.3142 17.491C27.4718 17.3627 27.7027 17.3847 27.831 17.5387C29.3595 19.3897 30.7743 21.4203 30.7743 23.7551C30.7743 29.3484 26.2256 33.8971 20.6323 33.8971V33.9008Z" fill="#171719"/>
<path d="M26.6578 17.0915C26.5552 17.0915 26.4526 17.0475 26.3793 16.9632C26.108 16.648 25.7452 16.2302 25.4189 15.86L25.1147 15.5117C24.9486 15.3187 24.8276 15.1782 24.7518 15.0902L24.5613 14.863C24.4293 14.709 24.4513 14.4781 24.6052 14.3462C24.7592 14.2142 24.9901 14.2362 25.1221 14.3901L25.3163 14.6211C25.3896 14.7066 25.5045 14.8398 25.6609 15.0206L25.9724 15.3761C26.2986 15.75 26.6652 16.1678 26.9364 16.4867C27.0684 16.6407 27.05 16.8716 26.8961 17.0035C26.8264 17.0622 26.7421 17.0915 26.6578 17.0915Z" fill="#171719"/>
<path d="M16.9994 30.7266C16.9335 30.7266 16.8712 30.7083 16.8088 30.6753C16.3507 30.4004 15.9255 30.0998 15.537 29.7846C15.3794 29.6563 15.3574 29.4254 15.4857 29.2678C15.6139 29.1102 15.8449 29.0882 16.0025 29.2165C16.3617 29.5097 16.7612 29.792 17.19 30.0485C17.3623 30.1548 17.4173 30.3784 17.3147 30.5507C17.245 30.6643 17.1241 30.7266 16.9994 30.7266Z" fill="#171719"/>
<path d="M14.4309 28.4982C14.3209 28.4982 14.2146 28.4505 14.1413 28.3552C10.0398 23.0514 14.9953 15.9516 15.2079 15.6511C15.3252 15.4861 15.5525 15.4458 15.7174 15.5631C15.8823 15.6804 15.9227 15.9077 15.8054 16.0726C15.7577 16.1422 10.9524 23.0294 14.7204 27.9044C14.845 28.0656 14.8157 28.2929 14.6544 28.4175C14.5885 28.4688 14.5078 28.4945 14.4309 28.4945V28.4982Z" fill="#171719"/>
<path d="M26.2986 29.1982C26.2033 29.1982 26.108 29.1616 26.0346 29.0883C25.8917 28.9417 25.8954 28.7107 26.042 28.5715C28.791 25.8848 27.9186 22.7875 27.882 22.6592C27.8233 22.465 27.937 22.2634 28.1276 22.2047C28.3218 22.1461 28.5234 22.2561 28.5821 22.4503C28.6261 22.5969 29.6304 26.09 26.5515 29.0956C26.4818 29.1652 26.3865 29.2019 26.2949 29.2019L26.2986 29.1982Z" fill="#171719"/>
<path d="M29.3735 12.4951C27.5445 12.4951 26.0527 11.007 26.0527 9.17433C26.0527 7.34165 27.5409 5.85352 29.3735 5.85352C31.2062 5.85352 32.6944 7.34165 32.6944 9.17433C32.6944 11.007 31.2062 12.4951 29.3735 12.4951ZM29.3735 6.59025C27.9477 6.59025 26.7858 7.75217 26.7858 9.17799C26.7858 10.6038 27.9477 11.7657 29.3735 11.7657C30.7994 11.7657 31.9613 10.6038 31.9613 9.17799C31.9613 7.75217 30.7994 6.59025 29.3735 6.59025Z" fill="#171719"/>
<path d="M28.2049 10.6882C28.1096 10.6882 28.0143 10.6515 27.9447 10.5782C26.9147 9.53726 27.1896 8.40833 27.4755 7.9575C27.5855 7.78889 27.8127 7.73757 27.9813 7.84754C28.1499 7.9575 28.2012 8.18108 28.0949 8.34969C28.0436 8.43766 27.6148 9.20372 28.4651 10.0614C28.6081 10.2044 28.6044 10.4389 28.4651 10.5782C28.3955 10.6479 28.3002 10.6845 28.2086 10.6845L28.2049 10.6882Z" fill="#171719"/>
<path d="M8.59501 33.6406C7.35246 33.6406 6.34082 32.6289 6.34082 31.3864C6.34082 30.1438 7.35246 29.1322 8.59501 29.1322C9.83757 29.1322 10.8492 30.1438 10.8492 31.3864C10.8492 32.6289 9.83757 33.6406 8.59501 33.6406ZM8.59501 29.8616C7.75565 29.8616 7.07389 30.5434 7.07389 31.3827C7.07389 32.2221 7.75565 32.9038 8.59501 32.9038C9.43438 32.9038 10.1161 32.2221 10.1161 31.3827C10.1161 30.5434 9.43438 29.8616 8.59501 29.8616Z" fill="#171719"/>
</svg>
