<svg width="40" height="40" viewBox="0 0 40 40" fill="none" xmlns="http://www.w3.org/2000/svg">
<path d="M21.4681 1.8349C12.4773 1.46793 3.11948 4.98555 3.11948 8.44042C3.11948 13.7615 5.6883 24.2202 5.6883 27.8899C5.6883 31.5597 0.550684 31.1927 1.46812 35.0459C2.38555 38.8991 8.25711 39.8165 19.8167 39.2661C31.3764 38.7156 32.1103 33.578 32.2938 29.1743C32.4773 24.7707 32.4773 24.2202 33.2112 22.9358C33.9452 21.6514 34.1287 21.101 36.6975 18.1652C39.2663 15.2294 38.5323 13.578 39.6333 10.2753C40.7342 6.97251 37.0644 1.8349 34.8626 4.03673C32.6608 6.23855 30.4589 2.20188 21.4681 1.8349Z" fill="#2C925E"/>
<path d="M12.4695 22.4283C12.2826 22.4283 12.125 22.2854 12.1067 22.0985L11.4029 15.0317C11.3846 14.8301 11.5312 14.6505 11.7328 14.6321C11.9344 14.6102 12.114 14.7604 12.1323 14.962L12.8361 22.0288C12.8544 22.2304 12.7078 22.41 12.5062 22.4283C12.4952 22.4283 12.4805 22.4283 12.4695 22.4283Z" fill="#171719"/>
<path d="M15.0906 24.7669C15.0906 24.7669 15.065 24.7669 15.054 24.7669C14.8524 24.7449 14.7058 24.5653 14.7278 24.3637L15.054 21.1345C15.076 20.9329 15.2519 20.7826 15.4572 20.8083C15.6588 20.8303 15.8054 21.0099 15.7834 21.2115L15.4572 24.4406C15.4388 24.6312 15.2776 24.7705 15.0943 24.7705L15.0906 24.7669Z" fill="#171719"/>
<path d="M30.1579 8.02354C30.0663 7.75963 29.8354 7.65334 29.5678 7.52872C29.3516 7.42975 29.0583 7.29413 28.6881 7.02656C27.4346 6.11022 25.1694 5.6264 23.9635 5.57875C23.7032 5.56775 23.5053 5.54942 23.2891 5.52743C22.5743 5.45779 21.68 5.37715 18.0843 5.50544C13.6199 5.66672 8.56533 5.84998 7.28979 8.40107C7.06254 8.85924 7.14684 9.19645 7.26047 9.39805C7.53537 9.89653 8.22079 10.0541 8.49936 10.0981C8.64964 10.2008 8.9282 10.3327 9.44868 10.461C9.82988 10.5563 10.1524 10.538 10.6912 10.5086C11.362 10.472 12.5496 10.7909 14.5105 10.8935C15.6505 10.9558 16.3725 11.0108 16.9773 11.0914C17.6591 11.1831 18.0109 11.3627 18.0806 12.0444L18.6597 17.8907C18.678 18.0813 18.8393 18.2206 19.0226 18.2206C19.0336 18.2206 19.0482 18.2206 19.0592 18.2206C19.2608 18.2022 19.4074 18.0226 19.3891 17.821L18.722 11.1134C18.8576 11.1464 18.9969 11.1831 19.1509 11.2234C19.7557 11.3773 20.5144 11.5716 21.559 11.8172C22.3361 12.0004 23.0801 12.0811 23.7802 12.0811C23.9818 12.0811 24.1797 12.0738 24.3703 12.0591C24.8945 12.0224 25.3343 12.433 25.3343 12.9571V15.0427C25.3343 15.2443 25.4993 15.4092 25.7009 15.4092C25.9025 15.4092 26.0674 15.2443 26.0674 15.0427V11.7732C28.0064 11.2381 29.3845 10.0945 29.8977 9.07549C30.1213 8.62832 30.2606 8.3131 30.1579 8.01987V8.02354ZM29.2416 8.74928C28.5928 10.0358 25.7229 12.0481 21.724 11.1061C20.6867 10.8605 19.9316 10.6699 19.3268 10.516C17.5271 10.0578 17.2119 10.3107 14.5435 10.1678C13.6968 10.1238 13.0187 10.1055 12.4689 10.1055C11.7249 10.1055 11.0944 9.8159 10.6986 9.83789C10.2001 9.86721 9.89586 9.81956 9.62095 9.75358C9.1298 9.62896 8.93187 9.65095 8.89155 9.6253C8.84231 9.56434 8.77065 9.52571 8.69265 9.5181L8.6643 9.51534C8.44438 9.49334 8.00453 9.24044 7.89824 9.04617C7.88358 9.02051 7.83959 8.93621 7.94222 8.72729C9.0235 6.56473 14.0597 6.38513 18.1099 6.23851C21.658 6.11022 22.523 6.19086 23.2194 6.25684C23.4467 6.27883 23.6593 6.29716 23.9305 6.30815C25.0118 6.35214 27.134 6.79931 28.2519 7.61668C28.6771 7.92824 29.0253 8.08951 29.2563 8.19214C29.3186 8.22147 29.3955 8.25446 29.4432 8.28378C29.4212 8.35342 29.3662 8.48904 29.2379 8.74561L29.2416 8.74928Z" fill="#171719"/>
<path d="M23.6453 30.2905C23.6453 30.2905 23.6197 30.2905 23.6087 30.2905C23.4071 30.2685 23.2605 30.0889 23.2825 29.8873L23.6087 26.6581C23.6307 26.4565 23.8066 26.3099 24.0119 26.3319C24.2135 26.3539 24.3601 26.5335 24.3381 26.7351L24.0119 29.9643C23.9935 30.1549 23.8323 30.2941 23.649 30.2941L23.6453 30.2905Z" fill="#171719"/>
<path d="M32.0285 13.9394L31.9002 13.7158C31.8709 13.6645 31.1782 12.4366 31.5557 11.3077C31.7536 10.7212 32.1935 10.2777 32.8606 9.99179C33.9125 9.54095 34.3707 9.03147 34.5723 8.68326C34.6969 8.46334 34.9315 8.34238 35.1807 8.36437C35.4336 8.38637 35.6426 8.54764 35.7269 8.78222C36.0641 9.72055 36.3243 11.0401 35.6572 12.0151C34.6639 13.4629 32.3767 13.8771 32.2778 13.8917L32.0249 13.9357L32.0285 13.9394ZM35.1074 9.21474C34.8142 9.64358 34.2461 10.1971 33.1538 10.6662C32.6773 10.8678 32.3841 11.1574 32.2558 11.5422C32.0652 12.1104 32.2814 12.7701 32.428 13.1147C33.0182 12.9681 34.4183 12.5355 35.0598 11.6045C35.5326 10.9155 35.3237 9.87817 35.1074 9.2184V9.21474Z" fill="#171719"/>
<path d="M32.4198 13.6058C32.3319 13.6058 32.2439 13.5765 32.1743 13.5142C32.024 13.3786 32.0093 13.1476 32.1449 12.9974L33.7357 11.2197C33.8713 11.0694 34.1022 11.0547 34.2525 11.1904C34.4028 11.326 34.4175 11.5569 34.2818 11.7072L32.6911 13.4849C32.6178 13.5655 32.5188 13.6058 32.4162 13.6058H32.4198Z" fill="#171719"/>
<path d="M32.7721 16.3292C33.2815 14.8777 33.1533 14.4745 32.937 14.2546C32.8454 14.1629 32.6401 14.02 32.3029 14.1336L30.0854 15.1526L30.7048 9.61056C30.7268 9.40896 30.5838 9.22936 30.3822 9.20737C30.1807 9.18538 30.0011 9.32833 29.9791 9.52992L29.345 15.1856C29.2863 15.7024 29.8178 16.0872 30.2906 15.8673L32.3872 14.9033C32.3725 15.0793 32.3102 15.4128 32.105 16.0176L30.9907 17.2088L28.7768 20.0495L27.0724 22.234C26.9478 22.3953 26.9771 22.6226 27.1347 22.7472C27.2007 22.7985 27.2814 22.8242 27.3583 22.8242C27.4683 22.8242 27.5746 22.7765 27.6479 22.6812L27.7652 22.5309C27.9998 22.2304 28.4799 22.4283 28.4323 22.8058L27.2337 32.5557C25.0162 34.0768 22.8133 34.8172 20.7607 35.0701L21.9116 28.3698C21.9446 28.1719 21.8127 27.9813 21.6111 27.9483C21.4095 27.9117 21.2225 28.0473 21.1895 28.2489L20.3538 33.0981C20.1376 34.3627 18.9793 35.2387 17.7001 35.1214C13.5766 34.7512 10.494 32.7646 9.83794 32.3101L9.07922 23.8468C9.03523 23.374 9.08288 22.8938 9.12686 22.5236C9.18184 22.0581 9.09021 21.2407 8.8483 20.0861C8.36081 17.7586 8.44877 15.4128 8.47443 14.6394C8.4781 14.5331 8.48176 14.4598 8.48176 14.4232C8.48176 14.1006 8.13722 12.2386 8.03092 11.6778C7.99427 11.4799 7.80367 11.3479 7.60208 11.3846C7.40415 11.4212 7.2722 11.6155 7.30885 11.8134C7.52511 12.9534 7.74869 14.2436 7.74869 14.4232C7.74869 14.4562 7.74869 14.5221 7.74136 14.6138C7.71204 15.4091 7.62407 17.821 8.12989 20.2364C8.42312 21.6439 8.42312 22.2157 8.39746 22.432C8.34981 22.8352 8.29849 23.3666 8.34614 23.9091L9.1342 32.7023L9.26248 32.8012C9.32479 32.8489 13.4666 35.9168 19.0233 35.9168C21.7137 35.9168 24.7376 35.1947 27.7872 33.0615L27.9191 32.9662L29.4732 20.3317L31.5405 17.678L32.6841 16.4574L32.7354 16.4025L32.7574 16.3365L32.7721 16.3292Z" fill="#171719"/>
<path d="M22.0614 35.3523C22.0614 35.3523 13.7008 36.2577 10.4276 33.1055L9.49294 32.5117V31.2948C9.49294 31.2948 8.49596 31.4817 8.18441 31.6064C7.87285 31.731 7.5613 31.9509 7.06281 32.1672C6.56432 32.3834 5.28511 33.0102 5.37675 33.7579C5.46838 34.5057 8.0268 35.356 8.6829 35.3487C9.33899 35.3414 10.149 35.2534 11.7728 35.7225C13.3965 36.1917 15.4528 36.0671 16.3911 36.254L22.0688 35.3487L22.0614 35.3523Z" fill="#171719"/>
</svg>
