<svg width="48" height="48" viewBox="0 0 48 48" fill="none" xmlns="http://www.w3.org/2000/svg">
<path d="M34 18L22 30M22 18L34 30M5.44 25.92L14.08 37.44C14.784 38.3787 15.136 38.848 15.5821 39.1865C15.9772 39.4863 16.4246 39.71 16.9015 39.8462C17.44 40 18.0267 40 19.2 40H34.4C37.7603 40 39.4405 40 40.7239 39.346C41.8529 38.7708 42.7708 37.8529 43.346 36.7239C44 35.4405 44 33.7603 44 30.4V17.6C44 14.2397 44 12.5595 43.346 11.2761C42.7708 10.1471 41.8529 9.2292 40.7239 8.65396C39.4405 8 37.7603 8 34.4 8H19.2C18.0267 8 17.44 8 16.9015 8.15378C16.4246 8.28999 15.9772 8.5137 15.5821 8.8135C15.136 9.15201 14.784 9.62134 14.08 10.56L5.44 22.08C4.92361 22.7685 4.66542 23.1128 4.56589 23.4909C4.47804 23.8246 4.47804 24.1754 4.56589 24.5091C4.66542 24.8872 4.92361 25.2315 5.44 25.92Z" stroke="#212225" stroke-width="4" stroke-linecap="round" stroke-linejoin="round"/>
</svg>
