<svg width="80" height="80" viewBox="0 0 80 80" fill="none" xmlns="http://www.w3.org/2000/svg">
<path d="M40 12C55.464 12 68 24.536 68 40C68 55.464 55.464 68 40 68C24.536 68 12 55.464 12 40C12 24.536 24.536 12 40 12ZM57.543 29.8574C56.1596 28.1353 53.6422 27.8611 51.9199 29.2441L35.75 42.2314L28.4521 34.6807C26.9169 33.0925 24.3843 33.05 22.7959 34.585C21.2077 36.1204 21.1649 38.6529 22.7002 40.2412L32.5352 50.415C33.9719 51.9011 36.3044 52.0484 37.916 50.7539L56.9297 35.4805C58.6514 34.0969 58.9262 31.5795 57.543 29.8574Z" fill="white" fill-opacity="0.1"/>
</svg>
