<svg width="48" height="48" viewBox="0 0 48 48" fill="none" xmlns="http://www.w3.org/2000/svg">
<path d="M24 6C33.9411 6 42 14.0589 42 24C42 33.9411 33.9411 42 24 42C14.0589 42 6 33.9411 6 24C6 14.0589 14.0589 6 24 6ZM33.4141 14.5859C32.633 13.8051 31.3669 13.805 30.5859 14.5859L24 21.1719L17.4141 14.5859C16.633 13.8051 15.3669 13.805 14.5859 14.5859C13.805 15.3669 13.8051 16.633 14.5859 17.4141L21.1719 24L14.5859 30.5859C13.805 31.3669 13.8051 32.633 14.5859 33.4141C15.367 34.1949 16.6331 34.195 17.4141 33.4141L24 26.8281L30.5859 33.4141C31.367 34.1949 32.6331 34.195 33.4141 33.4141C34.195 32.6331 34.1949 31.367 33.4141 30.5859L26.8281 24L33.4141 17.4141C34.195 16.6331 34.1949 15.367 33.4141 14.5859Z" fill="#5A5C63"/>
</svg>
