<svg width="64" height="64" viewBox="0 0 64 64" fill="none" xmlns="http://www.w3.org/2000/svg">
<path d="M28.6479 13.5795C29.7316 13.4193 30.8496 13.3333 32.0011 13.3333C45.6144 13.3333 54.5474 25.3462 57.5485 30.0982C57.9118 30.6733 58.0934 30.9609 58.195 31.4045C58.2713 31.7376 58.2713 32.2631 58.1949 32.5962C58.0932 33.0397 57.9103 33.3292 57.5445 33.9082C56.7449 35.1737 55.5258 36.9523 53.9107 38.8812M17.9315 17.9068C12.166 21.8179 8.25187 27.2517 6.45628 30.0941C6.09143 30.6717 5.909 30.9604 5.8073 31.404C5.73093 31.7371 5.73089 32.2625 5.80723 32.5956C5.90888 33.0391 6.09048 33.3267 6.45369 33.9018C9.45478 38.6538 18.3878 50.6667 32.0011 50.6667C37.4902 50.6667 42.2183 48.7136 46.1035 46.0709M8.00111 8L56.0011 56M26.3443 26.3431C24.8965 27.7909 24.0011 29.7909 24.0011 32C24.0011 36.4183 27.5828 40 32.0011 40C34.2102 40 36.2102 39.1046 37.658 37.6569" stroke="#878A93" stroke-width="4" stroke-linecap="round" stroke-linejoin="round"/>
</svg>
