<svg width="64" height="64" viewBox="0 0 64 64" fill="none" xmlns="http://www.w3.org/2000/svg">
<path d="M6.45366 33.9005C6.0905 33.3255 5.90891 33.0379 5.80726 32.5945C5.73091 32.2614 5.73091 31.736 5.80726 31.4029C5.90891 30.9594 6.09049 30.6719 6.45366 30.0969C9.45474 25.3449 18.3877 13.332 32.0011 13.332C45.6144 13.332 54.5474 25.3449 57.5485 30.0969C57.9117 30.6719 58.0932 30.9594 58.1949 31.4029C58.2712 31.736 58.2712 32.2614 58.1949 32.5945C58.0932 33.0379 57.9117 33.3255 57.5485 33.9005C54.5474 38.6525 45.6144 50.6654 32.0011 50.6654C18.3877 50.6654 9.45475 38.6525 6.45366 33.9005Z" stroke="#878A93" stroke-width="4" stroke-linecap="round" stroke-linejoin="round"/>
<path d="M32.0011 39.9987C36.4194 39.9987 40.0011 36.417 40.0011 31.9987C40.0011 27.5804 36.4194 23.9987 32.0011 23.9987C27.5828 23.9987 24.0011 27.5804 24.0011 31.9987C24.0011 36.417 27.5828 39.9987 32.0011 39.9987Z" stroke="#878A93" stroke-width="4" stroke-linecap="round" stroke-linejoin="round"/>
</svg>
