<svg width="68" height="68" viewBox="0 0 68 68" fill="none" xmlns="http://www.w3.org/2000/svg">
<path d="M11.7275 22.1777C19.512 9.78155 29.8499 1.8702 34.8174 4.50684C37.9295 6.15876 38.1945 11.5584 36.0449 18.4102C39.5501 16.2621 42.9085 15.5785 45.3311 16.8643C47.4769 18.0033 48.5347 20.4997 48.5605 23.7412C53.6168 19.1744 58.4336 17.0432 61.3721 18.6025C66.3396 21.2393 64.056 33.426 56.2715 45.8223C48.4871 58.2182 38.1501 66.1296 33.1826 63.4932C30.244 61.9333 29.8431 57.0318 31.6172 50.7217C28.5514 52.3213 25.671 52.7268 23.5254 51.5879C21.1038 50.3023 20.066 47.2878 20.3359 43.4248C14.9573 48.561 9.7387 51.0492 6.62695 49.3975C1.65992 46.7603 3.94326 34.5737 11.7275 22.1777Z" fill="#2C925E"/>
</svg>
