<svg width="748" height="768" viewBox="0 0 748 768" fill="none" xmlns="http://www.w3.org/2000/svg">
<g clip-path="url(#clip0_1_988)">
<path d="M181.313 2171.21C179.045 2171.76 176.657 2172.03 173.999 2172.1L173.895 2168.1C176.346 2168.04 178.443 2167.79 180.37 2167.33L181.313 2171.21ZM159.828 2167.26C161.097 2167.42 162.382 2167.56 163.684 2167.67C164.891 2167.77 166.034 2167.86 167.12 2167.93L166.869 2171.92C165.751 2171.85 164.582 2171.76 163.356 2171.66L163.353 2171.66C161.989 2171.54 160.64 2171.4 159.305 2171.22L159.828 2167.26ZM144.792 2163.67C147.227 2164.54 149.695 2165.26 152.21 2165.86L151.286 2169.75C148.632 2169.12 146.027 2168.35 143.457 2167.44L144.792 2163.67ZM194.234 2164.27C192.161 2165.95 190.213 2167.33 188.264 2168.43L186.292 2164.95C187.997 2163.99 189.76 2162.75 191.717 2161.16L194.234 2164.27ZM130.8 2157.05C133.076 2158.4 135.352 2159.62 137.642 2160.71L135.923 2164.32C133.516 2163.18 131.13 2161.9 128.752 2160.48L130.8 2157.05ZM205.195 2154.25C204.229 2155.2 203.207 2156.18 202.129 2157.2C201.244 2158.04 200.395 2158.84 199.575 2159.6L196.858 2156.67C197.661 2155.92 198.497 2155.14 199.372 2154.3L199.375 2154.3C200.442 2153.29 201.447 2152.32 202.395 2151.39L205.195 2154.25ZM116.847 2147.54C118.416 2148.51 119.884 2149.51 121.126 2150.47C122.18 2151.27 123.23 2152.04 124.277 2152.79L121.963 2156.05C120.878 2155.28 119.791 2154.48 118.703 2153.65L118.695 2153.65L118.687 2153.64C117.586 2152.78 116.239 2151.87 114.749 2150.95L116.847 2147.54ZM216.395 2141C214.985 2143.36 213.251 2145.65 211.138 2148.05L208.134 2145.41C210.134 2143.13 211.71 2141.04 212.963 2138.95L216.395 2141ZM98.764 2139.68C100.003 2140.06 101.362 2140.47 102.877 2140.92L102.879 2140.92C104.355 2141.37 106.035 2142.01 107.773 2142.78L106.162 2146.44C104.521 2145.72 103.003 2145.14 101.733 2144.75C100.216 2144.3 98.84 2143.89 97.5804 2143.5L98.764 2139.68ZM83.9545 2132.57C86.5245 2134.51 88.5686 2135.77 90.9066 2136.84L89.2426 2140.48C86.5789 2139.26 84.284 2137.83 81.5404 2135.76L83.9545 2132.57ZM573.487 2129.65C575.977 2129.75 578.482 2129.81 580.991 2129.82L580.977 2133.82C578.416 2133.81 575.858 2133.75 573.315 2133.64L573.487 2129.65ZM596.291 2133.28C593.758 2133.47 591.203 2133.61 588.639 2133.7L588.498 2129.7C591.011 2129.61 593.514 2129.47 595.995 2129.29L596.291 2133.28ZM558.551 2128.37C560.994 2128.69 563.481 2128.95 565.998 2129.17L565.66 2133.15C563.084 2132.94 560.535 2132.66 558.029 2132.33L558.551 2128.37ZM221.519 2124.18C221.177 2127.37 220.68 2130.19 219.936 2132.8L216.088 2131.71C216.753 2129.37 217.217 2126.78 217.541 2123.75L221.519 2124.18ZM611.527 2131.51C609.038 2131.91 606.499 2132.26 603.924 2132.56L603.466 2128.58C605.985 2128.29 608.466 2127.95 610.894 2127.56L611.527 2131.51ZM543.978 2125.67C545.126 2125.94 546.3 2126.21 547.499 2126.46L547.502 2126.47C548.703 2126.73 549.923 2126.97 551.159 2127.2L550.429 2131.13C549.157 2130.9 547.9 2130.64 546.661 2130.38C545.433 2130.11 544.229 2129.84 543.05 2129.56L543.978 2125.67ZM74.0883 2124.39C75.2711 2125.4 76.3587 2126.33 77.3675 2127.19L74.7787 2130.24C73.7628 2129.37 72.6694 2128.44 71.4857 2127.42L71.4799 2127.42L71.473 2127.41C70.4892 2126.56 69.5359 2125.72 68.6117 2124.91L71.2494 2121.9C72.1658 2122.71 73.1116 2123.54 74.0883 2124.39ZM626.574 2128.29C624.164 2128.96 621.663 2129.56 619.086 2130.11L618.255 2126.2C620.759 2125.67 623.184 2125.08 625.51 2124.44L626.574 2128.29ZM530.246 2121.56C532.377 2122.35 534.639 2123.11 537.034 2123.82L535.896 2127.65C533.42 2126.92 531.069 2126.14 528.843 2125.3L530.246 2121.56ZM641.125 2122.78C639.911 2123.48 638.724 2124.08 637.588 2124.56L637.58 2124.56L637.573 2124.57C636.403 2125.05 635.195 2125.52 633.953 2125.97L632.599 2122.2C633.78 2121.78 634.923 2121.34 636.026 2120.88C636.986 2120.47 638.027 2119.95 639.129 2119.31L641.125 2122.78ZM517.565 2115.33C519.423 2116.54 521.468 2117.69 523.706 2118.77L521.963 2122.37C519.59 2121.22 517.396 2120 515.383 2118.69L517.565 2115.33ZM60.0424 2111.81C61.7166 2113.38 63.5593 2115.07 65.5863 2116.89L62.9144 2119.86C60.871 2118.03 59.0041 2116.32 57.3002 2114.72L60.0424 2111.81ZM653.295 2113.46C651.397 2115.26 649.442 2116.94 647.502 2118.44L645.05 2115.28C646.882 2113.86 648.738 2112.27 650.545 2110.56L653.295 2113.46ZM222.355 2106.49C222.297 2108 222.249 2109.62 222.206 2111.37C222.175 2112.85 222.136 2114.26 222.086 2115.61L218.088 2115.46C218.137 2114.14 218.176 2112.74 218.207 2111.28V2111.27C218.251 2109.51 218.299 2107.87 218.358 2106.34L222.355 2106.49ZM507.589 2105.93C508.824 2107.74 510.313 2109.46 512.069 2111.09L509.347 2114.02C507.389 2112.2 505.7 2110.26 504.285 2108.18L507.589 2105.93ZM49.9213 2101.02C51.2179 2102.73 52.7974 2104.55 54.722 2106.56L51.8324 2109.33C49.8338 2107.24 48.1467 2105.3 46.7328 2103.43L49.9213 2101.02ZM663.4 2101.28C662.741 2102.59 661.951 2103.84 661.024 2105C660.245 2106 659.43 2106.99 658.585 2107.96L655.57 2105.33C656.369 2104.41 657.139 2103.48 657.87 2102.54L657.886 2102.52C658.637 2101.59 659.281 2100.57 659.823 2099.49L663.4 2101.28ZM502.327 2091.92C502.844 2093.57 503.27 2095.16 503.582 2096.64C503.828 2097.76 504.14 2098.85 504.517 2099.9L500.749 2101.25C500.315 2100.03 499.958 2098.78 499.676 2097.5L499.674 2097.49L499.672 2097.48C499.391 2096.15 498.999 2094.68 498.509 2093.11L502.327 2091.92ZM225.479 2088.09C224.292 2090.63 223.55 2093.34 223.069 2096.92L219.105 2096.38C219.626 2092.51 220.457 2089.39 221.855 2086.4L225.479 2088.09ZM44.4603 2088.21C44.7729 2090.64 45.3375 2092.81 46.2709 2094.95L42.6049 2096.55C41.5014 2094.02 40.847 2091.48 40.4926 2088.72L44.4603 2088.21ZM665.733 2084.39C666.111 2087.28 666.16 2090.16 665.829 2092.92L661.858 2092.45C662.144 2090.05 662.106 2087.51 661.766 2084.9L665.733 2084.39ZM494.752 2074.27C496.257 2077.1 497.669 2080.03 498.918 2082.9L495.249 2084.49C494.043 2081.72 492.676 2078.89 491.219 2076.14L494.752 2074.27ZM44.4847 2072.05C44.4044 2073.52 44.3354 2075.21 44.2621 2077.19V2077.2C44.2057 2078.52 44.1643 2079.76 44.1459 2080.94L40.1468 2080.88C40.166 2079.66 40.2078 2078.38 40.265 2077.04C40.3385 2075.06 40.4093 2073.34 40.4916 2071.83L44.4847 2072.05ZM236.308 2072.98C235.424 2074.28 234.524 2075.5 233.657 2076.55L233.649 2076.56L233.641 2076.56C232.498 2077.91 231.477 2079.14 230.562 2080.3L227.427 2077.81C228.375 2076.62 229.421 2075.36 230.573 2074C231.343 2073.07 232.169 2071.95 233.003 2070.73L236.308 2072.98ZM660.432 2068.48C661.784 2070.95 662.919 2073.54 663.807 2076.17L660.017 2077.45C659.204 2075.04 658.163 2072.66 656.923 2070.4L660.432 2068.48ZM485.138 2058.91C485.765 2060.03 486.431 2061.06 487.135 2062.01C488.058 2063.24 488.981 2064.58 489.894 2065.98L486.541 2068.16C485.668 2066.82 484.792 2065.56 483.926 2064.4L483.923 2064.39C483.111 2063.3 482.355 2062.12 481.653 2060.87L485.138 2058.91ZM243.988 2057.13C243.679 2058.53 243.248 2059.94 242.709 2061.38L242.702 2061.41L242.693 2061.43C242.203 2062.65 241.551 2064.03 240.805 2065.47L237.258 2063.62C237.961 2062.27 238.548 2061.02 238.974 2059.95C239.453 2058.66 239.822 2057.45 240.082 2056.27L243.988 2057.13ZM649.753 2055.51C651.937 2057.25 653.945 2059.27 655.748 2061.49L652.646 2064.01C651.006 2062 649.198 2060.18 647.256 2058.63L649.753 2055.51ZM52.8177 2057.19C51.3687 2058.1 50.2311 2058.94 49.5043 2059.63L49.4877 2059.64L49.4711 2059.66C47.8391 2061.13 46.9039 2062.04 46.2592 2063.02L42.9135 2060.83C43.8841 2059.34 45.2079 2058.11 46.7963 2056.68C47.7906 2055.75 49.1595 2054.77 50.6869 2053.81L52.8177 2057.19ZM634.905 2048.63C636.005 2049.03 637.146 2049.39 638.326 2049.7C639.726 2050.04 641.09 2050.51 642.413 2051.07L640.846 2054.75C639.701 2054.26 638.529 2053.87 637.335 2053.57L637.317 2053.57L637.299 2053.56C636.014 2053.22 634.764 2052.84 633.553 2052.4L634.905 2048.63ZM480.111 2044.69C480.652 2047.29 481.318 2049.75 482.106 2052.04L478.324 2053.34C477.475 2050.88 476.766 2048.25 476.195 2045.5L480.111 2044.69ZM69.016 2049.63C67.5958 2050.3 66.1248 2050.92 64.6009 2051.49L64.5638 2051.51C63.2864 2051.96 61.9179 2052.51 60.5326 2053.12L58.9056 2049.47C60.3664 2048.82 61.8291 2048.23 63.2181 2047.74C64.6368 2047.21 65.9993 2046.63 67.308 2046.01L69.016 2049.63ZM622.934 2041.31C624.571 2042.93 626.426 2044.36 628.487 2045.61L626.417 2049.03C624.1 2047.63 621.995 2046 620.125 2044.16L622.934 2041.31ZM241.008 2039.74C242.567 2042.65 243.612 2045.37 244.142 2048.06L240.218 2048.83C239.784 2046.62 238.904 2044.28 237.484 2041.64L241.008 2039.74ZM84.3959 2038.16C82.2325 2040.61 79.8735 2042.79 77.2933 2044.7L74.9095 2041.49C77.2613 2039.74 79.4141 2037.76 81.3949 2035.51L84.3959 2038.16ZM615.716 2029.31C616.058 2030.41 616.486 2031.54 617.002 2032.72C617.483 2033.8 618.021 2034.83 618.615 2035.82L615.186 2037.88C614.506 2036.75 613.891 2035.57 613.344 2034.34L613.34 2034.33C612.771 2033.03 612.288 2031.76 611.897 2030.5L615.716 2029.31ZM478.422 2029.4C478.489 2032.02 478.658 2034.6 478.928 2037.1L474.951 2037.52C474.669 2034.91 474.494 2032.23 474.424 2029.5L478.422 2029.4ZM231.161 2025.49C231.778 2026.36 232.438 2027.26 233.142 2028.18L233.861 2029.11L233.866 2029.12C234.771 2030.29 235.615 2031.42 236.4 2032.51L233.152 2034.84C232.397 2033.79 231.581 2032.7 230.7 2031.56C229.693 2030.27 228.758 2029.02 227.895 2027.8L231.161 2025.49ZM93.7904 2023.04C93.3572 2024.11 92.88 2025.15 92.3539 2026.2L92.349 2026.21C91.6124 2027.67 90.8441 2029.06 90.0414 2030.39L86.6146 2028.33C87.3646 2027.08 88.0863 2025.78 88.7816 2024.4C89.2654 2023.44 89.6965 2022.49 90.0844 2021.54L93.7904 2023.04ZM616.391 2015.67C615.352 2017.93 614.812 2020.13 614.716 2022.38L610.72 2022.21C610.839 2019.41 611.516 2016.7 612.758 2014L616.391 2015.67ZM479.166 2013.95C478.857 2016.53 478.64 2019.11 478.516 2021.66L474.521 2021.47C474.65 2018.82 474.874 2016.15 475.195 2013.48L479.166 2013.95ZM224.507 2009.77C224.666 2012.45 225.371 2015.09 226.66 2017.91L223.022 2019.57C221.563 2016.38 220.707 2013.26 220.514 2010.01L224.507 2009.77ZM96.9222 2009.64C96.6245 2012.18 96.2712 2014.38 95.8324 2016.38L91.9252 2015.53C92.3288 2013.68 92.663 2011.62 92.9496 2009.17L96.9222 2009.64ZM625.411 2004.19C623.401 2006.07 621.699 2007.87 620.286 2009.61L617.183 2007.08C618.733 2005.18 620.564 2003.25 622.676 2001.27L625.411 2004.19ZM482.114 1998.78C481.438 2001.25 480.854 2003.77 480.362 2006.31L476.435 2005.55C476.945 2002.91 477.552 2000.3 478.256 1997.73L482.114 1998.78ZM97.9945 1996.37C97.912 1997.41 97.8343 1998.49 97.7601 1999.62L97.7592 1999.62C97.6881 2000.78 97.6155 2001.89 97.5385 2002.95L93.5492 2002.66C93.6251 2001.62 93.6976 2000.52 93.7679 1999.37L93.7689 1999.36C93.8441 1998.21 93.9232 1997.12 94.0072 1996.06L97.9945 1996.37ZM229.108 1993.29C227.553 1996.27 226.408 1998.94 225.645 2001.42L221.823 2000.24C222.676 1997.47 223.929 1994.56 225.561 1991.44L229.108 1993.29ZM637.572 1994.27C636.476 1995.13 635.339 1996 634.161 1996.89C633.113 1997.69 632.11 1998.47 631.152 1999.24L628.645 1996.12C629.632 1995.33 630.662 1994.53 631.736 1993.71L631.746 1993.7L633.454 1992.4C634.013 1991.97 634.561 1991.54 635.099 1991.12L637.572 1994.27ZM487.366 1984.28C486.905 1985.42 486.401 1986.62 485.855 1987.88C485.365 1989.04 484.898 1990.23 484.455 1991.43L480.701 1990.06C481.166 1988.79 481.658 1987.54 482.176 1986.31L482.181 1986.3L482.185 1986.29C482.721 1985.05 483.211 1983.89 483.657 1982.78L487.366 1984.28ZM99.6254 1983.6C99.2452 1985.48 98.9166 1987.56 98.6293 1989.92L94.6586 1989.44C94.9557 1987 95.2994 1984.81 95.7045 1982.8L99.6254 1983.6ZM650.406 1982.6C648.582 1984.63 646.511 1986.67 644.195 1988.74L641.528 1985.76C643.758 1983.77 645.721 1981.83 647.428 1979.93L650.406 1982.6ZM238.326 1978.17C237.637 1979.3 236.909 1980.45 236.139 1981.63L236.135 1981.64L236.13 1981.65C235.253 1982.97 234.427 1984.25 233.651 1985.48L230.267 1983.35C231.059 1982.09 231.898 1980.79 232.786 1979.45C233.538 1978.3 234.246 1977.18 234.911 1976.09L238.326 1978.17ZM104.675 1968.96C104.168 1970.71 103.416 1972.49 102.455 1974.65L102.447 1974.67L102.437 1974.69C102.013 1975.59 101.623 1976.53 101.264 1977.54L97.4965 1976.2C97.8928 1975.09 98.3262 1974.03 98.8002 1973.02C99.7619 1970.86 100.41 1969.31 100.833 1967.85L104.675 1968.96ZM491.268 1968.74C491.221 1971.32 490.796 1973.92 489.985 1976.82L486.132 1975.74C486.872 1973.1 487.23 1970.84 487.269 1968.67L491.268 1968.74ZM659.363 1967.24C658.572 1970.1 657.364 1972.83 655.743 1975.51L652.322 1973.44C653.771 1971.04 654.823 1968.65 655.507 1966.17L659.363 1967.24ZM245.39 1963.18C244.564 1965.83 243.542 1968.38 242.308 1970.94L238.705 1969.2C239.863 1966.8 240.809 1964.44 241.571 1961.99L245.39 1963.18ZM487.716 1951.95C487.964 1953.08 488.281 1954.23 488.677 1955.48L489.099 1956.76L489.107 1956.78C489.543 1958.11 489.919 1959.38 490.231 1960.6L486.354 1961.59C486.07 1960.47 485.721 1959.29 485.306 1958.03C484.678 1956.19 484.18 1954.49 483.81 1952.82L487.716 1951.95ZM659.4 1949.43C660.073 1952.52 660.441 1955.45 660.48 1958.26L656.48 1958.31C656.445 1955.81 656.119 1953.16 655.493 1950.29L659.4 1949.43ZM104.287 1950.77L104.697 1953.89C104.82 1954.86 104.929 1955.76 105.025 1956.6L101.05 1957.05C100.864 1955.41 100.621 1953.52 100.323 1951.3L100.322 1951.29C100.16 1950.04 100.013 1948.89 99.8822 1947.82L103.853 1947.33C103.981 1948.39 104.127 1949.53 104.287 1950.77ZM248.065 1946.81C247.918 1949.76 247.653 1952.48 247.255 1955.04L243.303 1954.43C243.676 1952.02 243.928 1949.44 244.07 1946.61L248.065 1946.81ZM653.816 1932.98C655.031 1935.79 656.087 1938.47 656.979 1941.03L653.202 1942.34C652.347 1939.89 651.328 1937.31 650.143 1934.56L653.816 1932.98ZM487.86 1933.91C487.753 1935.01 487.639 1936.04 487.518 1937L487.375 1938.38C487.244 1939.73 487.146 1940.96 487.082 1942.1L483.088 1941.88C483.178 1940.27 483.332 1938.52 483.54 1936.57L483.542 1936.55L483.545 1936.53C483.662 1935.62 483.773 1934.61 483.878 1933.52L487.86 1933.91ZM103.639 1934.1C103.23 1936.18 103.101 1938.08 103.213 1940.55L99.2172 1940.73C99.0926 1937.99 99.2343 1935.76 99.7142 1933.33L103.639 1934.1ZM247.943 1930.49C248.079 1933.4 248.166 1936.1 248.197 1938.63L244.197 1938.68C244.167 1936.2 244.082 1933.55 243.948 1930.68L247.943 1930.49ZM488.702 1921.49C488.604 1923.55 488.488 1925.65 488.354 1927.69L484.363 1927.43C484.495 1925.42 484.609 1923.34 484.706 1921.3L488.702 1921.49ZM107.854 1920.14C107.458 1921.56 107.021 1922.97 106.544 1924.36C106.139 1925.56 105.775 1926.64 105.449 1927.63L101.647 1926.39C101.98 1925.37 102.351 1924.27 102.758 1923.06L102.762 1923.05C103.213 1921.75 103.625 1920.42 103.999 1919.07L107.854 1920.14ZM646.781 1918.17C647.277 1919.2 647.791 1920.24 648.323 1921.3C648.981 1922.61 649.614 1923.9 650.221 1925.15L646.62 1926.89C646.022 1925.66 645.397 1924.39 644.746 1923.09L644.745 1923.09C644.206 1922.01 643.685 1920.96 643.181 1919.92L646.781 1918.17ZM246.928 1914.33C247.008 1915.66 247.096 1917.01 247.192 1918.37C247.293 1919.75 247.387 1921.1 247.475 1922.41L243.484 1922.68C243.397 1921.38 243.303 1920.03 243.202 1918.65V1918.65C243.105 1917.28 243.017 1915.92 242.936 1914.57L246.928 1914.33ZM489.064 1908.13C489.072 1909.36 489.059 1910.69 489.038 1912.16V1912.18C489.015 1913.15 488.986 1914.19 488.951 1915.29L484.953 1915.16C484.987 1914.08 485.016 1913.06 485.038 1912.11C485.059 1910.64 485.071 1909.34 485.064 1908.16L489.064 1908.13ZM641.165 1905.49C641.975 1907.55 642.867 1909.68 643.847 1911.88L640.193 1913.5C639.191 1911.26 638.276 1909.08 637.442 1906.95L641.165 1905.49ZM110.592 1902.76C110.436 1905.78 110.139 1908.69 109.703 1911.51L105.749 1910.9C106.164 1908.22 106.448 1905.44 106.598 1902.55L110.592 1902.76ZM246.354 1898.18C246.379 1900.85 246.442 1903.54 246.54 1906.26L242.542 1906.4C242.443 1903.65 242.38 1900.92 242.354 1898.22L246.354 1898.18ZM485.553 1891.9C486.906 1894.94 487.777 1897.37 488.31 1899.79L484.403 1900.65C483.949 1898.58 483.191 1896.43 481.898 1893.53L485.553 1891.9ZM636.94 1892.4C637.477 1894.58 638.105 1896.77 638.831 1899L635.028 1900.24C634.273 1897.92 633.618 1895.64 633.056 1893.36L636.94 1892.4ZM110.069 1885.28C110.373 1888.29 110.571 1891.19 110.663 1894L106.665 1894.13C106.577 1891.42 106.385 1888.61 106.089 1885.69L110.069 1885.28ZM246.668 1882.05C246.535 1884.73 246.443 1887.41 246.391 1890.11L242.392 1890.03C242.445 1887.3 242.538 1884.57 242.673 1881.85L246.668 1882.05ZM478.662 1877.79C479.177 1878.86 479.712 1879.95 480.27 1881.06C480.916 1882.33 481.515 1883.52 482.071 1884.64L478.492 1886.42C477.94 1885.32 477.345 1884.14 476.701 1882.86L476.7 1882.86C476.131 1881.73 475.582 1880.62 475.055 1879.52L478.662 1877.79ZM634.704 1878.88C634.91 1881.2 635.191 1883.46 635.559 1885.69L631.613 1886.34C631.228 1884 630.934 1881.65 630.72 1879.23L634.704 1878.88ZM107.412 1868.11C108.004 1871.04 108.516 1873.89 108.949 1876.65L104.996 1877.27C104.573 1874.57 104.072 1871.78 103.492 1868.9L107.412 1868.11ZM247.96 1865.96C247.662 1868.66 247.406 1871.33 247.192 1874L243.204 1873.68C243.422 1870.97 243.682 1868.26 243.985 1865.52L247.96 1865.96ZM473.166 1864.42C473.925 1866.69 474.766 1868.92 475.7 1871.18L472.004 1872.71C471.038 1870.38 470.163 1868.05 469.372 1865.69L473.166 1864.42ZM630.278 1868.54C630.278 1866.96 630.219 1865.28 630.111 1863.58L634.103 1863.33C634.216 1865.1 634.278 1866.86 634.278 1868.54C634.278 1869.72 634.292 1870.87 634.321 1872L630.323 1872.1C630.293 1870.94 630.278 1869.75 630.278 1868.54ZM103.427 1851.26C104.195 1854.13 104.903 1856.92 105.549 1859.64L101.658 1860.57C101.021 1857.89 100.322 1855.13 99.5629 1852.3L103.427 1851.26ZM469.615 1850.45C470.062 1852.91 470.567 1855.25 471.139 1857.51L467.261 1858.49C466.666 1856.14 466.141 1853.71 465.679 1851.16L469.615 1850.45ZM250.186 1849.97C249.738 1852.67 249.331 1855.33 248.964 1857.96L245.002 1857.4C245.374 1854.74 245.787 1852.05 246.241 1849.32L250.186 1849.97ZM630.11 1843.6C630.542 1845.01 630.994 1846.38 631.467 1847.72C631.99 1849.12 632.45 1850.95 632.836 1852.97L628.908 1853.72C628.54 1851.8 628.131 1850.22 627.722 1849.13L627.715 1849.11L627.709 1849.09C627.212 1847.69 626.738 1846.25 626.286 1844.78L630.11 1843.6ZM98.808 1835.26C99.1426 1836.41 99.4922 1837.59 99.8578 1838.79L99.8588 1838.79C100.283 1840.19 100.693 1841.57 101.092 1842.94L97.2533 1844.06C96.8584 1842.71 96.4507 1841.34 96.0306 1839.95C95.661 1838.74 95.3065 1837.55 94.9672 1836.38L98.808 1835.26ZM467.769 1836.06C467.985 1838.6 468.235 1841 468.523 1843.29L464.554 1843.78C464.259 1841.44 464.003 1838.98 463.783 1836.4L467.769 1836.06ZM253.198 1834.08C252.63 1836.77 252.099 1839.41 251.606 1842.01L247.676 1841.26C248.175 1838.64 248.711 1835.97 249.285 1833.26L253.198 1834.08ZM626.126 1826.49C626.64 1829.49 627.213 1832.37 627.848 1835.13L623.95 1836.02C623.296 1833.19 622.708 1830.24 622.183 1827.16L626.126 1826.49ZM95.223 1821.12C95.6928 1823.41 96.2407 1825.76 96.8685 1828.21L92.9935 1829.2C92.3519 1826.69 91.7895 1824.28 91.3051 1821.92L95.223 1821.12ZM466.932 1821.47C467.022 1824.03 467.131 1826.46 467.261 1828.78L463.267 1829C463.135 1826.65 463.025 1824.19 462.934 1821.62L466.932 1821.47ZM256.663 1818.35C256.423 1819.69 256.156 1820.99 255.864 1822.23V1822.23C255.548 1823.56 255.241 1824.87 254.942 1826.18L251.042 1825.28C251.344 1823.97 251.654 1822.64 251.972 1821.3C252.245 1820.15 252.497 1818.92 252.726 1817.64L256.663 1818.35ZM623.914 1808.96C624.182 1811.99 624.49 1814.93 624.843 1817.76L620.874 1818.25C620.515 1815.37 620.201 1812.39 619.93 1809.31L623.914 1808.96ZM93.2338 1806.76C93.3985 1809.18 93.6473 1811.56 93.9828 1813.96L90.0219 1814.52C89.6734 1812.03 89.4148 1809.55 89.2435 1807.03L93.2338 1806.76ZM466.618 1806.82C466.644 1809.36 466.68 1811.8 466.729 1814.15L462.73 1814.23C462.681 1811.87 462.644 1809.42 462.618 1806.86L466.618 1806.82ZM258.271 1802.74C258.156 1805.44 257.974 1808.05 257.726 1810.55L253.745 1810.15C253.985 1807.74 254.161 1805.2 254.274 1802.57L258.271 1802.74ZM622.822 1791.34C622.909 1792.81 622.982 1794.26 623.039 1795.69L623.149 1797.92C623.187 1798.66 623.228 1799.39 623.271 1800.12L619.278 1800.35C619.191 1798.88 619.113 1797.39 619.043 1795.87V1795.86C618.986 1794.46 618.914 1793.02 618.828 1791.57L622.822 1791.34ZM93.181 1792.25C93.0498 1794.77 92.9851 1797.18 92.9886 1799.52L88.9886 1799.52C88.985 1797.11 89.0514 1794.63 89.1859 1792.04L93.181 1792.25ZM462.565 1795.78C462.565 1794.38 462.565 1793.03 462.563 1791.72L466.563 1791.72C466.565 1793.02 466.565 1794.37 466.565 1795.78C466.565 1797.03 466.567 1798.26 466.571 1799.47L462.571 1799.48C462.567 1798.27 462.565 1797.03 462.565 1795.78ZM258.236 1787.14C258.351 1789.77 258.412 1792.38 258.42 1794.93L254.42 1794.94C254.412 1792.45 254.352 1789.9 254.24 1787.31L258.236 1787.14ZM94.474 1777.67C94.1748 1780.22 93.9195 1782.64 93.7094 1784.96L89.725 1784.6C89.9388 1782.24 90.1987 1779.78 90.5013 1777.2L94.474 1777.67ZM466.418 1775.53C466.474 1778 466.51 1780.68 466.532 1783.63L462.532 1783.66C462.51 1780.72 462.475 1778.07 462.419 1775.62L466.418 1775.53ZM621.219 1773.95C621.57 1776.71 621.889 1779.65 622.162 1782.63L618.18 1783C617.91 1780.06 617.596 1777.17 617.251 1774.46L621.219 1773.95ZM256.961 1771.61C257.273 1774.19 257.534 1776.78 257.745 1779.36L253.759 1779.69C253.552 1777.16 253.296 1774.62 252.991 1772.08L256.961 1771.61ZM96.5345 1761.88C96.3178 1763.51 96.1062 1765.12 95.9027 1766.7L95.9017 1766.71L95.8998 1766.72C95.7243 1767.96 95.5561 1769.18 95.3959 1770.37L91.432 1769.84C91.5934 1768.64 91.7624 1767.41 91.9388 1766.16C92.1421 1764.59 92.3535 1762.98 92.5697 1761.35L96.5345 1761.88ZM465.471 1759.25C465.751 1761.91 465.961 1764.56 466.117 1767.39L462.122 1767.61C461.97 1764.84 461.766 1762.25 461.494 1759.67L465.471 1759.25ZM618.062 1756.71C618.329 1758.13 618.625 1759.52 618.953 1760.91C619.278 1762.18 619.593 1763.65 619.894 1765.27L615.961 1766C615.671 1764.44 615.374 1763.06 615.078 1761.91L615.074 1761.89L615.07 1761.87C614.725 1760.41 614.413 1758.94 614.131 1757.45L618.062 1756.71ZM255.213 1760.04L255.214 1760.04C255.448 1761.32 255.668 1762.6 255.875 1763.89L251.927 1764.52C251.724 1763.26 251.508 1762.01 251.28 1760.76L250.609 1757.07L254.546 1756.37C254.755 1757.54 254.977 1758.76 255.213 1760.04ZM99.1605 1742.61C98.741 1745.65 98.2913 1748.92 97.8363 1752.25L93.8724 1751.7C94.3278 1748.37 94.7783 1745.11 95.1976 1742.06L99.1605 1742.61ZM463.072 1743.13C463.593 1746.03 464.037 1748.66 464.416 1751.15L460.462 1751.75C460.09 1749.31 459.651 1746.72 459.134 1743.84L463.072 1743.13ZM252.377 1741.77C252.573 1743.94 252.883 1746.32 253.309 1749.06L249.356 1749.67C248.922 1746.88 248.6 1744.41 248.394 1742.13L252.377 1741.77ZM616.24 1739.4C616.377 1742.59 616.576 1745.46 616.842 1748.12L612.862 1748.51C612.586 1745.77 612.383 1742.83 612.244 1739.57L616.24 1739.4ZM460.826 1731.18L460.827 1731.19C461.094 1732.57 461.348 1733.9 461.591 1735.17L457.662 1735.92C457.421 1734.65 457.166 1733.33 456.9 1731.95L455.979 1727.2L459.907 1726.44L460.826 1731.18ZM252.963 1727.42C252.52 1729.97 252.255 1732.26 252.161 1734.58L248.164 1734.41C248.266 1731.89 248.555 1729.43 249.023 1726.74L252.963 1727.42ZM101.603 1724.61C101.431 1725.76 101.265 1726.92 101.103 1728.12C100.946 1729.4 100.733 1731.05 100.477 1732.96L96.5121 1732.43C96.7674 1730.52 96.9792 1728.9 97.1332 1727.63L97.1351 1727.62L97.1361 1727.61C97.3014 1726.39 97.4711 1725.19 97.6469 1724.02L101.603 1724.61ZM616.017 1721.45C616.02 1722.96 616.013 1724.55 615.997 1726.22C615.997 1727.74 616.004 1729.2 616.019 1730.61L612.019 1730.65C612.004 1729.22 611.997 1727.74 611.997 1726.2V1726.18C612.013 1724.52 612.02 1722.95 612.017 1721.45L616.017 1721.45ZM256.288 1712.14C255.978 1713.79 255.667 1715.29 255.362 1716.6L255.356 1716.62C255.04 1717.9 254.747 1719.1 254.478 1720.24L250.585 1719.32C250.859 1718.16 251.155 1716.94 251.473 1715.66C251.759 1714.43 252.057 1713 252.358 1711.4L256.288 1712.14ZM456.39 1707.45C456.915 1710.39 457.498 1713.6 458.119 1716.95L454.186 1717.68C453.564 1714.32 452.979 1711.1 452.453 1708.15L456.39 1707.45ZM104.214 1710.62C103.674 1713 103.201 1715.3 102.775 1717.59L98.8422 1716.85C99.2778 1714.51 99.7618 1712.17 100.314 1709.74L104.214 1710.62ZM615.068 1702.24C615.429 1705.24 615.676 1708.36 615.827 1711.86L611.829 1712.04C611.682 1708.62 611.444 1705.6 611.096 1702.72L615.068 1702.24ZM107.814 1696.81C107.112 1699.25 106.482 1701.53 105.913 1703.7L102.044 1702.68C102.622 1700.48 103.26 1698.17 103.97 1695.7L107.814 1696.81ZM258.948 1694.34C258.584 1697.36 258.181 1700.38 257.758 1703.25L253.801 1702.66C254.219 1699.83 254.617 1696.85 254.977 1693.86L258.948 1694.34ZM453.391 1688.89C453.591 1690.35 453.782 1691.8 453.965 1693.21L454.269 1695.15C454.398 1695.95 454.553 1696.88 454.732 1697.94L450.788 1698.61C450.43 1696.49 450.161 1694.83 450.008 1693.8L450.005 1693.78L450.003 1693.76C449.82 1692.34 449.627 1690.9 449.427 1689.44L453.391 1688.89ZM611.363 1683.24C611.617 1684.52 611.878 1685.74 612.146 1686.88L612.415 1687.99L612.418 1688L612.42 1688.01C612.808 1689.63 613.16 1691.18 613.478 1692.7L609.563 1693.52C609.254 1692.05 608.911 1690.53 608.531 1688.94C608.151 1687.42 607.786 1685.77 607.438 1684.01L611.363 1683.24ZM111.979 1683.1C111.214 1685.52 110.507 1687.79 109.85 1689.95L106.024 1688.78C106.685 1686.61 107.397 1684.32 108.164 1681.89L111.979 1683.1ZM260.521 1677.34C260.438 1678.47 260.356 1679.66 260.274 1680.9L260.273 1680.91C260.168 1682.35 260.044 1683.85 259.902 1685.4L255.918 1685.03C256.058 1683.51 256.181 1682.03 256.284 1680.62C256.366 1679.38 256.448 1678.19 256.532 1677.05L260.521 1677.34ZM450.794 1671.5C451.26 1674.4 451.711 1677.31 452.142 1680.19L448.186 1680.78C447.758 1677.92 447.308 1675.02 446.844 1672.14L450.794 1671.5ZM116.343 1669.54C116.006 1670.59 115.65 1671.68 115.276 1672.83C114.894 1674 114.524 1675.15 114.164 1676.26L110.358 1675.03C110.719 1673.91 111.09 1672.77 111.472 1671.59C111.845 1670.45 112.2 1669.36 112.536 1668.31L116.343 1669.54ZM608.592 1663.74C608.937 1667.15 609.329 1670.44 609.76 1673.54L605.798 1674.09C605.359 1670.93 604.962 1667.59 604.613 1664.15L608.592 1663.74ZM262.035 1663.31C261.68 1665.51 261.388 1667.79 261.13 1670.28L257.152 1669.87C257.415 1667.32 257.716 1664.96 258.085 1662.67L262.035 1663.31ZM447.827 1654.18C448.339 1656.99 448.852 1659.89 449.356 1662.83L445.412 1663.51C444.911 1660.57 444.401 1657.69 443.892 1654.89L447.827 1654.18ZM120.33 1656.23C119.809 1658.24 119.18 1660.44 118.42 1662.94L114.594 1661.77C115.343 1659.31 115.956 1657.17 116.458 1655.23L120.33 1656.23ZM265.2 1649.63C264.49 1652.07 263.897 1654.3 263.394 1656.44L259.5 1655.53C260.023 1653.3 260.634 1651.01 261.36 1648.52L265.2 1649.63ZM607.246 1645.58C607.321 1646.73 607.386 1647.86 607.441 1648.96L607.587 1651.43C607.639 1652.26 607.694 1653.08 607.751 1653.9L603.761 1654.18C603.645 1652.52 603.539 1650.85 603.447 1649.19V1649.18C603.392 1648.09 603.328 1646.97 603.254 1645.83L607.246 1645.58ZM122.553 1642.26C122.415 1644.72 122.186 1646.98 121.81 1649.31L117.862 1648.67C118.213 1646.5 118.428 1644.38 118.559 1642.03L122.553 1642.26ZM444.43 1636.91C444.998 1639.55 445.592 1642.45 446.197 1645.54L442.271 1646.3C441.67 1643.23 441.082 1640.36 440.52 1637.75L444.43 1636.91ZM269.645 1635.74C269.206 1637.06 268.787 1638.31 268.394 1639.47L268.395 1639.48C268.006 1640.65 267.638 1641.78 267.289 1642.86L263.482 1641.64C263.834 1640.54 264.205 1639.41 264.597 1638.22L264.599 1638.21L264.602 1638.21C264.993 1637.05 265.41 1635.81 265.848 1634.48L269.645 1635.74ZM606.086 1632.03C606.322 1634.28 606.539 1636.55 606.733 1638.79L602.747 1639.14C602.556 1636.92 602.341 1634.68 602.108 1632.45L606.086 1632.03ZM118.753 1631.81C118.753 1630.71 118.764 1629.62 118.785 1628.54L122.784 1628.61C122.764 1629.67 122.753 1630.73 122.753 1631.81C122.753 1633.03 122.751 1634.18 122.743 1635.28L118.743 1635.25C118.751 1634.17 118.753 1633.02 118.753 1631.81ZM439.792 1619.86C440.185 1621.12 440.535 1622.21 440.838 1623.1L441.125 1623.93L441.126 1623.93C441.52 1625.05 441.953 1626.53 442.412 1628.29L438.542 1629.3C438.094 1627.58 437.695 1626.23 437.356 1625.27L437.051 1624.39C436.732 1623.45 436.37 1622.33 435.973 1621.05L439.792 1619.86ZM274.519 1620.7C273.696 1623.28 272.883 1625.81 272.102 1628.22L268.296 1626.99C269.076 1624.58 269.886 1622.06 270.708 1619.48L274.519 1620.7ZM604.427 1618.54C604.734 1620.67 605.034 1622.94 605.321 1625.28L601.35 1625.77C601.066 1623.45 600.769 1621.21 600.467 1619.11L604.427 1618.54ZM123.554 1615.9C123.339 1617.86 123.161 1619.99 123.029 1622.24L119.036 1622C119.172 1619.7 119.355 1617.5 119.578 1615.46L123.554 1615.9ZM279.286 1605.64C278.513 1608.1 277.715 1610.63 276.911 1613.17L273.097 1611.97C273.9 1609.43 274.698 1606.9 275.471 1604.44L279.286 1605.64ZM434.933 1603.1C435.774 1606.13 436.572 1608.95 437.31 1611.51L433.466 1612.62C432.724 1610.05 431.922 1607.21 431.078 1604.17L434.933 1603.1ZM601.978 1604.81C602.152 1605.76 602.331 1606.67 602.515 1607.54L602.702 1608.41L602.703 1608.41L602.704 1608.42C602.919 1609.44 603.138 1610.57 603.356 1611.8L599.417 1612.5C599.205 1611.3 598.995 1610.21 598.791 1609.25C598.531 1608.07 598.282 1606.84 598.043 1605.54L601.978 1604.81ZM126.472 1601.44C126.048 1603.47 125.607 1605.31 125.187 1606.72L125.185 1606.73C124.939 1607.55 124.699 1608.54 124.473 1609.68L120.549 1608.9C120.793 1607.67 121.061 1606.55 121.354 1605.58C121.73 1604.31 122.145 1602.6 122.556 1600.62L126.472 1601.44ZM283.99 1590.67C283.606 1591.86 283.219 1593.09 282.828 1594.34V1594.34C282.452 1595.55 282.059 1596.81 281.651 1598.11L277.833 1596.91C278.241 1595.61 278.634 1594.35 279.01 1593.15C279.404 1591.89 279.794 1590.65 280.181 1589.45L283.99 1590.67ZM599.984 1590.16C600.254 1592.82 600.538 1595.26 600.838 1597.52L596.873 1598.05C596.567 1595.74 596.278 1593.26 596.004 1590.56L599.984 1590.16ZM430.35 1586.23C431.12 1589.12 431.879 1591.95 432.62 1594.68L428.759 1595.72C428.017 1592.99 427.257 1590.16 426.485 1587.26L430.35 1586.23ZM129.078 1582.06C128.959 1583.32 128.861 1584.48 128.786 1585.51C128.662 1587.19 128.471 1589.01 128.235 1590.87L124.267 1590.36C124.497 1588.56 124.679 1586.81 124.796 1585.22C124.874 1584.16 124.975 1582.97 125.095 1581.68L129.078 1582.06ZM289.041 1576.17C288.158 1578.48 287.288 1580.87 286.417 1583.38L282.638 1582.07C283.521 1579.52 284.406 1577.09 285.307 1574.74L289.041 1576.17ZM598.764 1575.33C598.941 1577.95 599.123 1580.42 599.312 1582.75L595.325 1583.07C595.134 1580.72 594.95 1578.23 594.773 1575.59L598.764 1575.33ZM425.922 1569.32C426.652 1572.15 427.387 1574.98 428.12 1577.78L424.249 1578.79C423.515 1575.99 422.779 1573.15 422.048 1570.31L425.922 1569.32ZM130.688 1568.2C130.373 1570.52 130.078 1572.87 129.814 1575.12L125.841 1574.66C126.108 1572.38 126.406 1570.01 126.724 1567.66L130.688 1568.2ZM295.104 1562.14C293.991 1564.43 292.936 1566.73 291.921 1569.08L288.248 1567.5C289.287 1565.09 290.366 1562.74 291.505 1560.39L295.104 1562.14ZM597.9 1560.42C598.031 1563.02 598.164 1565.5 598.3 1567.88L594.307 1568.11C594.17 1565.72 594.036 1563.23 593.905 1560.62L597.9 1560.42ZM421.638 1552.36C422.328 1555.15 423.038 1557.99 423.761 1560.85L419.883 1561.83C419.159 1558.96 418.447 1556.12 417.755 1553.33L421.638 1552.36ZM132.968 1554.02C132.763 1555.2 132.534 1556.48 132.282 1557.89C132.088 1558.96 131.894 1560.11 131.702 1561.31L127.752 1560.67C127.948 1559.45 128.146 1558.28 128.345 1557.18C128.597 1555.78 128.824 1554.5 129.027 1553.34L132.968 1554.02ZM302.492 1548.24C301.799 1549.52 301.114 1550.77 300.444 1551.97L300.44 1551.97C299.804 1553.11 299.188 1554.22 298.591 1555.33L295.07 1553.43C295.679 1552.3 296.306 1551.16 296.953 1550.01C297.614 1548.83 298.292 1547.6 298.977 1546.33L302.492 1548.24ZM597.379 1549.23C597.434 1550.5 597.489 1551.75 597.544 1552.97L593.548 1553.15C593.493 1551.93 593.438 1550.68 593.383 1549.4C593.329 1548.14 593.275 1546.88 593.221 1545.64L597.217 1545.47C597.271 1546.71 597.325 1547.96 597.379 1549.23ZM133.726 1537.81C134.204 1540.76 134.313 1543.2 134.083 1546.09L130.095 1545.77C130.298 1543.22 130.207 1541.09 129.778 1538.45L133.726 1537.81ZM418.544 1539.63L418.545 1539.63C418.875 1541.02 419.214 1542.43 419.561 1543.87L415.672 1544.81C415.324 1543.37 414.984 1541.95 414.654 1540.56L413.757 1536.8L417.648 1535.87L418.544 1539.63ZM310.34 1533.18C309.129 1535.61 307.821 1538.17 306.48 1540.75L302.932 1538.9C304.263 1536.34 305.56 1533.8 306.761 1531.39L310.34 1533.18ZM596.887 1537.98L592.891 1538.16C592.777 1535.6 592.663 1533.1 592.55 1530.65L596.546 1530.47C596.659 1532.92 596.773 1535.42 596.887 1537.98ZM130.097 1522.1C130.39 1523.37 130.715 1524.71 131.078 1526.19C131.426 1527.57 131.745 1528.84 132.033 1530L128.15 1530.96C127.865 1529.81 127.548 1528.55 127.2 1527.17L127.199 1527.17L127.197 1527.16C126.833 1525.67 126.5 1524.3 126.2 1522.99L130.097 1522.1ZM415.876 1528.43L411.985 1529.35C411.377 1526.79 410.787 1524.31 410.214 1521.9L414.107 1520.97C414.679 1523.39 415.269 1525.87 415.876 1528.43ZM317.369 1517.78C316.843 1519.11 316.319 1520.39 315.801 1521.59C315.329 1522.71 314.736 1524.04 314.051 1525.51L310.423 1523.83C311.096 1522.38 311.668 1521.1 312.116 1520.04L312.121 1520.02C312.623 1518.86 313.132 1517.62 313.646 1516.31L317.369 1517.78ZM596.196 1522.98L592.201 1523.17C592.078 1520.61 591.957 1518.11 591.836 1515.68L595.831 1515.48C595.952 1517.92 596.073 1520.42 596.196 1522.98ZM127.953 1505.65C128.078 1508.94 128.285 1511.57 128.587 1513.94L124.62 1514.45C124.299 1511.93 124.083 1509.18 123.955 1505.8L127.953 1505.65ZM412.336 1513.5L408.444 1514.42C407.838 1511.85 407.252 1509.38 406.688 1506.98L410.581 1506.06C411.145 1508.46 411.73 1510.93 412.336 1513.5ZM322.797 1502.22C321.952 1504.91 321.089 1507.53 320.219 1510.04L316.44 1508.72C317.296 1506.26 318.147 1503.67 318.982 1501.02L322.797 1502.22ZM595.453 1507.98L591.457 1508.19C591.325 1505.61 591.193 1503.12 591.062 1500.7L595.056 1500.49C595.187 1502.91 595.32 1505.41 595.453 1507.98ZM408.824 1498.58L404.929 1499.49C404.322 1496.9 403.743 1494.41 403.188 1492.03L407.083 1491.12C407.638 1493.5 408.217 1495.99 408.824 1498.58ZM127.863 1488.73C127.824 1491.91 127.805 1494.72 127.81 1497.22L123.81 1497.23C123.805 1494.7 123.823 1491.88 123.863 1488.69L127.863 1488.73ZM327.352 1486.44C326.66 1489.06 325.927 1491.72 325.166 1494.36L321.324 1493.25C322.076 1490.64 322.8 1488.02 323.484 1485.42L327.352 1486.44ZM594.64 1492.99L590.646 1493.22C590.498 1490.63 590.35 1488.13 590.204 1485.74L594.198 1485.49C594.344 1487.9 594.492 1490.4 594.64 1492.99ZM405.358 1483.67L401.459 1484.56C400.855 1481.94 400.285 1479.44 399.748 1477.08L403.649 1476.19C404.185 1478.55 404.754 1481.04 405.358 1483.67ZM128.168 1471.75C128.103 1474.81 128.045 1477.63 127.996 1480.26L123.997 1480.19C124.046 1477.55 124.104 1474.72 124.169 1471.67L128.168 1471.75ZM331.117 1470.42C330.601 1472.98 330.006 1475.68 329.347 1478.47L325.453 1477.55C326.103 1474.8 326.689 1472.14 327.195 1469.63L331.117 1470.42ZM593.209 1470.51C593.379 1472.87 593.551 1475.36 593.724 1477.99L589.732 1478.26C589.56 1475.63 589.389 1473.15 589.22 1470.8L593.209 1470.51ZM400.33 1461.25C400.83 1463.57 401.374 1466.05 401.967 1468.71L398.063 1469.58C397.468 1466.91 396.922 1464.42 396.42 1462.09L400.33 1461.25ZM591.978 1455.5C592.195 1457.78 592.414 1460.28 592.636 1463.01L588.65 1463.33C588.429 1460.62 588.211 1458.14 587.995 1455.88L591.978 1455.5ZM128.556 1454.84L128.455 1458.99C128.422 1460.45 128.388 1461.87 128.357 1463.25L124.359 1463.16C124.39 1461.78 124.423 1460.36 124.456 1458.9L124.557 1454.73L128.556 1454.84ZM333.741 1452.67C333.444 1454.49 333.214 1456.32 333.058 1458.11L333.057 1458.12C332.94 1459.4 332.77 1460.79 332.555 1462.27L328.596 1461.7C328.804 1460.27 328.964 1458.95 329.074 1457.76C329.238 1455.87 329.481 1453.94 329.792 1452.03L333.741 1452.67ZM397.285 1446.28C397.708 1448.55 398.193 1451.02 398.755 1453.77L394.836 1454.57C394.271 1451.81 393.78 1449.31 393.352 1447.02L397.285 1446.28ZM590.65 1444.22L590.908 1446C590.994 1446.63 591.08 1447.29 591.166 1447.99L587.197 1448.48C587.028 1447.12 586.86 1445.9 586.696 1444.83L586.694 1444.82L586.692 1444.8C586.563 1443.88 586.392 1442.63 586.184 1441.12L590.147 1440.57C590.352 1442.07 590.522 1443.3 590.65 1444.22ZM129.079 1438.23C128.976 1440.96 128.881 1443.72 128.792 1446.53L124.794 1446.4C124.883 1443.59 124.979 1440.81 125.082 1438.08L129.079 1438.23ZM339.98 1432.78C339.433 1434.26 338.848 1435.7 338.245 1436.99L338.242 1437C337.545 1438.48 336.886 1440.17 336.284 1442.01L332.482 1440.77C333.125 1438.8 333.842 1436.95 334.622 1435.29C335.167 1434.13 335.71 1432.8 336.227 1431.4L339.98 1432.78ZM395.115 1432.86L395.434 1435.02L395.436 1435.04C395.599 1436.23 395.781 1437.47 395.987 1438.78L392.035 1439.4C391.825 1438.07 391.64 1436.8 391.473 1435.58C391.276 1434.23 391.05 1432.72 390.802 1431.1L394.756 1430.5C394.881 1431.31 395.001 1432.1 395.115 1432.86ZM589.139 1433.2L585.176 1433.74C584.868 1431.48 584.529 1429 584.17 1426.36L588.134 1425.82C588.493 1428.46 588.831 1430.94 589.139 1433.2ZM129.821 1421.64C129.679 1424.35 129.546 1427.12 129.42 1429.93L125.424 1429.75C125.55 1426.93 125.684 1424.16 125.827 1421.43L129.821 1421.64ZM343.844 1415.28C343.716 1416.67 343.587 1418.09 343.455 1419.56L343.453 1419.59L343.45 1419.62C343.293 1420.92 342.991 1422.49 342.594 1424.15L338.703 1423.23C339.079 1421.65 339.345 1420.25 339.478 1419.14C339.608 1417.7 339.735 1416.29 339.862 1414.91L343.844 1415.28ZM393.343 1421.47L389.393 1422.1C388.924 1419.15 388.433 1416.09 387.949 1413.09L391.898 1412.45C392.382 1415.46 392.874 1418.52 393.343 1421.47ZM587.129 1418.44L583.166 1418.98C582.839 1416.58 582.502 1414.11 582.161 1411.6L586.124 1411.06C586.465 1413.57 586.802 1416.04 587.129 1418.44ZM130.825 1405.06C130.636 1407.77 130.456 1410.53 130.286 1413.35L126.293 1413.11C126.464 1410.28 126.644 1407.5 126.833 1404.79L130.825 1405.06ZM345.513 1398.24C345.234 1400.88 344.947 1403.71 344.65 1406.76L340.668 1406.37C340.966 1403.32 341.255 1400.47 341.536 1397.82L345.513 1398.24ZM584.617 1400C584.784 1401.22 584.952 1402.45 585.12 1403.68L581.157 1404.22C580.989 1402.99 580.821 1401.76 580.654 1400.54L580.652 1400.53C580.468 1399.14 580.293 1397.81 580.124 1396.52L584.091 1396C584.259 1397.28 584.434 1398.61 584.617 1400ZM389.325 1396.61L389.723 1398.92L389.725 1398.93L389.728 1398.95C389.951 1400.35 390.193 1401.86 390.447 1403.45L386.497 1404.08C386.245 1402.51 386.005 1401.01 385.783 1399.6L385.381 1397.28C385.244 1396.47 385.104 1395.64 384.96 1394.78L388.906 1394.12C389.048 1394.98 389.188 1395.81 389.325 1396.61ZM132.152 1388.52C131.905 1391.21 131.669 1393.96 131.443 1396.79L127.455 1396.47C127.682 1393.63 127.921 1390.86 128.169 1388.16L132.152 1388.52ZM347.589 1381.3C347.223 1383.77 346.853 1386.56 346.47 1389.74L342.498 1389.26C342.884 1386.06 343.26 1383.22 343.632 1380.71L347.589 1381.3ZM582.133 1380.12C582.395 1382.56 582.705 1385.16 583.066 1388.05L579.096 1388.54C578.733 1385.65 578.421 1383.02 578.156 1380.54L582.133 1380.12ZM385.843 1374.87C386.33 1378.06 386.839 1381.32 387.344 1384.5L383.393 1385.13C382.887 1381.94 382.377 1378.67 381.889 1375.48L385.843 1374.87ZM133.906 1372.04C133.58 1374.7 133.266 1377.44 132.966 1380.28L128.989 1379.86C129.291 1377 129.606 1374.23 129.935 1371.55L133.906 1372.04ZM351.245 1363.47C350.915 1365.58 350.528 1367.5 350.09 1368.98L350.082 1369C349.74 1370.11 349.4 1371.42 349.059 1372.98L345.151 1372.13C345.508 1370.5 345.873 1369.08 346.254 1367.84L346.391 1367.36C346.708 1366.17 347.015 1364.63 347.292 1362.85L351.245 1363.47ZM581.025 1364.25C581.097 1366.97 581.224 1369.55 581.411 1372.18L577.422 1372.47C577.23 1369.78 577.1 1367.14 577.027 1364.36L581.025 1364.25ZM383.694 1360.41L383.695 1360.41L384.394 1365.23L380.437 1365.81C380.184 1364.09 379.947 1362.47 379.735 1360.98C379.535 1359.6 379.337 1358.25 379.141 1356.92L383.098 1356.33L383.694 1360.41ZM136.262 1355.67C135.822 1358.27 135.398 1360.99 134.992 1363.83L131.033 1363.27C131.444 1360.39 131.872 1357.63 132.318 1355L136.262 1355.67ZM581.101 1348.3C581.026 1351.21 580.977 1353.85 580.959 1356.29L576.96 1356.26C576.979 1353.79 577.027 1351.13 577.103 1348.19L581.101 1348.3ZM348.52 1347.12C348.52 1345.75 348.566 1344.26 348.653 1342.66L352.647 1342.88C352.564 1344.42 352.52 1345.84 352.52 1347.12C352.52 1348.83 352.462 1350.69 352.356 1352.59L348.362 1352.37C348.464 1350.53 348.52 1348.74 348.52 1347.12ZM380.63 1340.16C381.043 1342.76 381.463 1345.46 381.891 1348.27L377.936 1348.87C377.509 1346.07 377.091 1343.38 376.68 1340.79L380.63 1340.16ZM139.634 1338.45C139.296 1340.29 138.959 1342.02 138.643 1343.51L138.639 1343.52L138.636 1343.54C138.342 1344.83 138.053 1346.17 137.77 1347.55L133.852 1346.75C134.141 1345.34 134.435 1343.97 134.736 1342.65C135.04 1341.21 135.369 1339.53 135.701 1337.73L139.634 1338.45ZM581.643 1332.25C581.532 1335.14 581.434 1337.81 581.348 1340.29L577.35 1340.15C577.436 1337.66 577.535 1334.99 577.646 1332.1L581.643 1332.25ZM354.472 1325.75C354.049 1328.66 353.676 1331.55 353.373 1334.31L349.398 1333.88C349.706 1331.06 350.084 1328.12 350.513 1325.17L354.472 1325.75ZM377.907 1324.03C378.366 1326.56 378.834 1329.25 379.311 1332.09L375.367 1332.75C374.892 1329.93 374.427 1327.26 373.971 1324.74L377.907 1324.03ZM142.565 1319.26C142.333 1320.85 142.149 1322.19 142.026 1323.21C141.844 1324.72 141.602 1326.46 141.324 1328.32L137.368 1327.73C137.642 1325.9 137.879 1324.19 138.055 1322.73C138.184 1321.67 138.373 1320.29 138.607 1318.69L142.565 1319.26ZM582.272 1316.2C582.222 1317.52 582.17 1318.86 582.118 1320.2V1320.2C582.063 1321.58 582.009 1322.92 581.957 1324.22L577.961 1324.06C578.013 1322.76 578.065 1321.42 578.12 1320.04C578.173 1318.7 578.225 1317.37 578.275 1316.05L582.272 1316.2ZM357.522 1308.75C356.944 1311.38 356.38 1314.24 355.851 1317.21L351.913 1316.51C352.451 1313.49 353.025 1310.58 353.616 1307.89L357.522 1308.75ZM374.637 1307.92C375.206 1310.35 375.784 1313.03 376.373 1315.96L372.452 1316.75C371.869 1313.85 371.3 1311.21 370.743 1308.83L374.637 1307.92ZM145.111 1303.38C144.644 1306.12 144.198 1308.82 143.794 1311.32L139.845 1310.68C140.251 1308.17 140.699 1305.46 141.167 1302.71L145.111 1303.38ZM582.83 1300.21C582.749 1302.77 582.659 1305.44 582.563 1308.21L578.566 1308.07C578.662 1305.3 578.751 1302.63 578.832 1300.08L582.83 1300.21ZM369.29 1291.89C370.416 1293.79 371.477 1296.47 372.522 1299.9L368.696 1301.07C367.683 1297.74 366.732 1295.42 365.852 1293.94L369.29 1291.89ZM362.918 1293.51C362.345 1294.27 361.716 1295.32 361.034 1296.7C360.614 1297.56 360.141 1298.83 359.635 1300.47L355.813 1299.29C356.344 1297.57 356.891 1296.07 357.445 1294.93L357.449 1294.92C358.193 1293.42 358.951 1292.12 359.735 1291.09L362.918 1293.51ZM147.799 1288.12C147.599 1289.28 147.401 1290.4 147.207 1291.47L147.206 1291.48C146.969 1292.77 146.73 1294.1 146.492 1295.44L142.553 1294.74C142.793 1293.39 143.033 1292.06 143.272 1290.76C143.463 1289.7 143.659 1288.59 143.857 1287.44L147.799 1288.12ZM583.269 1284.19C583.217 1286.59 583.15 1289.28 583.069 1292.21L579.071 1292.09C579.152 1289.17 579.218 1286.49 579.27 1284.11L583.269 1284.19ZM149.959 1274.7C149.619 1276.96 149.268 1279.22 148.915 1281.42L144.966 1280.78C145.317 1278.6 145.666 1276.36 146.004 1274.11L149.959 1274.7ZM582.453 1266.75C582.64 1268.22 582.808 1269.42 582.944 1270.27C583.012 1270.7 583.07 1271.03 583.116 1271.26C583.136 1271.36 583.152 1271.42 583.161 1271.46C583.267 1271.74 583.296 1271.97 583.3 1272C583.319 1272.13 583.331 1272.26 583.34 1272.38C583.358 1272.62 583.37 1272.92 583.378 1273.27C583.396 1273.98 583.401 1274.96 583.394 1276.17L579.394 1276.15C579.4 1274.95 579.396 1274.01 579.38 1273.37C579.372 1273.05 579.362 1272.82 579.351 1272.68C579.327 1272.6 579.31 1272.54 579.299 1272.5C579.263 1272.36 579.228 1272.21 579.197 1272.06C579.134 1271.75 579.065 1271.36 578.993 1270.9C578.847 1269.99 578.674 1268.75 578.485 1267.26L582.453 1266.75ZM151.83 1261.23C151.559 1263.39 151.257 1265.66 150.935 1267.97L146.973 1267.42C147.293 1265.13 147.593 1262.88 147.862 1260.73L151.83 1261.23ZM580.605 1249.55L580.769 1251.19V1251.2C580.936 1252.98 581.108 1254.72 581.28 1256.39L577.3 1256.8C577.127 1255.12 576.955 1253.36 576.786 1251.57C576.685 1250.5 576.573 1249.42 576.452 1248.34L580.427 1247.89C580.489 1248.45 580.548 1249 580.605 1249.55ZM153.381 1246.87C153.216 1248.25 153.067 1249.65 152.933 1251.07C152.845 1252.12 152.738 1253.25 152.614 1254.45L148.635 1254.04C148.758 1252.85 148.863 1251.74 148.949 1250.71L148.95 1250.7L148.951 1250.69C149.088 1249.24 149.241 1247.81 149.41 1246.4L153.381 1246.87ZM578.544 1234.76C578.909 1236.8 579.264 1239.02 579.591 1241.32L575.631 1241.88C575.31 1239.63 574.964 1237.46 574.608 1235.47L578.544 1234.76ZM156.282 1230.28C155.655 1232.96 155.093 1235.71 154.601 1238.53L150.661 1237.85C151.165 1234.95 151.742 1232.12 152.387 1229.37L156.282 1230.28ZM574.874 1221.28C575.201 1222.44 575.609 1223.61 576.099 1224.8C576.467 1225.67 576.825 1226.85 577.168 1228.2L573.291 1229.18C572.96 1227.88 572.659 1226.93 572.411 1226.35L572.406 1226.34L572.4 1226.32C571.857 1225.01 571.396 1223.69 571.023 1222.36L574.874 1221.28ZM161.036 1214.27C160.623 1215.51 160.178 1216.81 159.708 1218.17C159.27 1219.48 158.85 1220.81 158.447 1222.16L154.615 1221.01C155.031 1219.62 155.467 1218.24 155.92 1216.88L155.924 1216.87L155.927 1216.86C156.396 1215.5 156.835 1214.22 157.243 1213L161.036 1214.27ZM574.901 1206.62C574.256 1209.32 573.94 1211.75 573.913 1214.02L569.913 1213.97C569.944 1211.36 570.307 1208.64 571.009 1205.69L574.901 1206.62ZM164.595 1197.77C164.542 1200.61 164.119 1203.37 163.413 1206.28L159.526 1205.34C160.181 1202.63 160.55 1200.18 160.596 1197.69L164.595 1197.77ZM580.202 1192.13C579.022 1194.71 578.022 1197.09 577.19 1199.3L573.446 1197.9C574.316 1195.58 575.354 1193.12 576.563 1190.47L580.202 1192.13ZM161.257 1181.12C162.327 1184.07 163.127 1186.72 163.676 1189.19L159.771 1190.06C159.269 1187.8 158.525 1185.32 157.497 1182.49L161.257 1181.12ZM587 1178.51C586.471 1179.51 585.943 1180.53 585.419 1181.54L585.414 1181.55C584.786 1182.76 584.185 1183.93 583.612 1185.06L580.04 1183.26C580.623 1182.11 581.232 1180.92 581.869 1179.7C582.396 1178.68 582.928 1177.66 583.46 1176.65L587 1178.51ZM154.775 1165.94C156.036 1168.64 157.162 1171.12 158.161 1173.43L154.491 1175.02C153.511 1172.76 152.401 1170.31 151.152 1167.64L154.775 1165.94ZM593.589 1166.51C592.543 1168.33 591.411 1170.34 590.241 1172.48L586.733 1170.55C587.916 1168.4 589.062 1166.36 590.124 1164.52L593.589 1166.51ZM601.458 1154.66C600.522 1156.1 599.642 1157.32 598.875 1158.16L598.868 1158.17C598.562 1158.51 597.962 1159.34 597.089 1160.7L593.722 1158.54C594.58 1157.2 595.349 1156.09 595.919 1155.47C596.467 1154.86 597.207 1153.86 598.105 1152.48L601.458 1154.66ZM147.641 1151.19C148.924 1153.79 150.123 1156.23 151.243 1158.54L147.643 1160.29C146.529 1157.99 145.334 1155.55 144.054 1152.96L147.641 1151.19ZM609.455 1140.32C608.171 1142.86 606.884 1145.31 605.652 1147.55L602.147 1145.62C603.354 1143.43 604.62 1141.02 605.886 1138.51L609.455 1140.32ZM142.167 1140.17C142.794 1141.43 143.404 1142.65 144 1143.85L140.419 1145.63C139.823 1144.44 139.213 1143.21 138.586 1141.95L138.584 1141.95C138.036 1140.85 137.492 1139.75 136.953 1138.65L140.541 1136.88C141.079 1137.97 141.621 1139.07 142.167 1140.17ZM616.394 1125.54C615.358 1127.94 614.22 1130.46 613.033 1132.98L609.413 1131.28C610.585 1128.79 611.704 1126.31 612.72 1123.96L616.394 1125.54ZM134.157 1123.69C135.182 1125.85 136.241 1128.05 137.326 1130.3L133.724 1132.04C132.635 1129.79 131.573 1127.57 130.543 1125.4L134.157 1123.69ZM127.989 1110.4C128.953 1112.53 129.972 1114.75 131.04 1117.05L127.413 1118.74C126.34 1116.43 125.314 1114.19 124.344 1112.05L127.989 1110.4ZM621.944 1110.13C621.465 1111.64 621.075 1112.92 620.786 1113.94L620.78 1113.96C620.429 1115.15 619.981 1116.48 619.457 1117.92L615.701 1116.54C616.204 1115.17 616.623 1113.92 616.943 1112.83C617.247 1111.76 617.649 1110.44 618.131 1108.92L621.944 1110.13ZM122.156 1097C122.992 1099.03 123.949 1101.28 125.011 1103.71L121.345 1105.31C120.274 1102.86 119.307 1100.58 118.457 1098.52L122.156 1097ZM627.12 1094.78C626.174 1097.49 625.284 1100.07 624.479 1102.44L620.691 1101.16C621.501 1098.77 622.394 1096.18 623.343 1093.46L627.12 1094.78ZM117.48 1083.01C117.827 1084.32 118.165 1085.62 118.497 1086.91L118.502 1086.93L118.506 1086.95C118.688 1087.72 119.028 1088.82 119.531 1090.24L115.759 1091.57C115.246 1090.12 114.856 1088.88 114.623 1087.91L114.124 1085.98C113.956 1085.33 113.786 1084.69 113.614 1084.04L117.48 1083.01ZM632.561 1079.5C631.633 1082.06 630.712 1084.62 629.817 1087.13L626.049 1085.79C626.947 1083.27 627.87 1080.7 628.8 1078.13L632.561 1079.5ZM113.074 1067.51C113.878 1070.18 114.631 1072.74 115.342 1075.24L111.495 1076.34C110.79 1073.86 110.043 1071.32 109.245 1068.67L113.074 1067.51ZM638.172 1064.28C637.254 1066.72 636.306 1069.27 635.346 1071.88L631.592 1070.49C632.554 1067.88 633.506 1065.32 634.428 1062.87L638.172 1064.28ZM108.213 1052.17C109.09 1054.83 109.913 1057.37 110.69 1059.82L106.877 1061.03C106.106 1058.6 105.287 1056.07 104.414 1053.42L108.213 1052.17ZM643.84 1049.69C643.349 1050.86 642.908 1051.95 642.527 1052.93L642.525 1052.93C642.058 1054.12 641.567 1055.38 641.056 1056.7L637.325 1055.26C637.838 1053.93 638.333 1052.66 638.803 1051.47C639.198 1050.45 639.651 1049.34 640.15 1048.15L643.84 1049.69ZM103.053 1036.94C103.969 1039.58 104.836 1042.11 105.661 1044.54L101.873 1045.83C101.051 1043.4 100.187 1040.88 99.2738 1038.25L103.053 1036.94ZM649.588 1036.78C648.557 1039 647.57 1041.16 646.654 1043.21L643.001 1041.58C643.927 1039.51 644.923 1037.33 645.96 1035.09L649.588 1036.78ZM97.7084 1021.79C98.6438 1024.4 99.539 1026.92 100.397 1029.35L96.6244 1030.68C95.7685 1028.26 94.8755 1025.74 93.9418 1023.13L97.7084 1021.79ZM655.691 1023.99C654.665 1026.08 653.629 1028.22 652.607 1030.37L648.996 1028.64C650.024 1026.49 651.066 1024.34 652.098 1022.23L655.691 1023.99ZM662.074 1011.36C661.07 1013.27 659.981 1015.39 658.843 1017.64L655.271 1015.84C656.417 1013.57 657.518 1011.43 658.535 1009.5L662.074 1011.36ZM93.6195 1010.44L94.9877 1014.22L91.226 1015.58C90.7788 1014.34 90.3229 1013.08 89.8588 1011.8L89.8549 1011.79C89.4621 1010.69 89.065 1009.57 88.6654 1008.45L92.434 1007.11C92.8321 1008.23 93.2281 1009.34 93.6195 1010.44ZM668.912 1000.98C668.112 1001.62 667.514 1002.16 667.156 1002.55C666.865 1002.89 666.293 1003.76 665.451 1005.2L661.995 1003.18C662.825 1001.76 663.574 1000.58 664.139 999.923L664.153 999.907L664.166 999.893C664.741 999.254 665.546 998.545 666.434 997.844L668.912 1000.98ZM90.057 1000.41L86.2865 1001.75C85.4949 999.516 84.7011 997.275 83.9125 995.048L87.683 993.713C88.4714 995.94 89.2656 998.18 90.057 1000.41ZM679.245 994.454C678.093 995.324 676.835 996.087 675.465 996.801L675.451 996.809L675.436 996.815C674.718 997.174 673.956 997.597 673.188 998.057L671.133 994.625C671.962 994.129 672.804 993.661 673.619 993.253L674.07 993.014C675.105 992.453 676.018 991.879 676.835 991.262L679.245 994.454ZM85.3148 987.016L81.5433 988.348C80.7371 986.064 79.9455 983.819 79.1791 981.64L82.9535 980.312C83.7192 982.49 84.5091 984.733 85.3148 987.016ZM687.917 979.312C687.068 982.547 686.134 985.211 685.002 987.45L681.432 985.646C682.393 983.744 683.241 981.371 684.048 978.296L687.917 979.312ZM80.6029 973.609L76.8265 974.93C75.9936 972.546 75.2097 970.292 74.4896 968.21L78.2699 966.902C78.9882 968.979 79.771 971.229 80.6029 973.609ZM691.506 961.469C691.122 963.348 690.757 965.227 690.433 967.025L690.434 967.026C690.19 968.467 689.947 969.831 689.705 971.125L685.774 970.39C686.011 969.122 686.248 967.78 686.49 966.357L686.494 966.338C686.825 964.498 687.196 962.58 687.587 960.667L691.506 961.469ZM73.6 953.215C74.0764 954.536 74.4982 955.756 74.8558 956.849C75.169 957.805 75.5434 958.927 75.9711 960.192L72.181 961.473C71.7508 960.199 71.3724 959.065 71.0541 958.093C70.7116 957.047 70.3028 955.865 69.8363 954.571L73.6 953.215ZM696.551 941.86C696.171 943.152 695.831 944.243 695.55 945.05C695.14 946.229 694.609 948.089 694.023 950.39L690.147 949.401C690.74 947.074 691.304 945.081 691.772 943.736C692.021 943.02 692.341 942 692.713 940.732L696.551 941.86ZM68.0326 939.006C69.0477 941.453 70.0087 943.829 70.891 946.069L67.1693 947.535C66.2967 945.319 65.344 942.966 64.3373 940.539L68.0326 939.006ZM699.918 929.214C699.373 931.421 698.825 933.563 698.301 935.543L694.434 934.52C694.952 932.562 695.494 930.44 696.035 928.254L699.918 929.214ZM61.9867 925.032C63.0241 927.333 64.0566 929.671 65.0629 931.997L61.391 933.586C60.3924 931.278 59.3688 928.958 58.3402 926.677L61.9867 925.032ZM702.919 916.445C702.657 917.54 702.4 918.628 702.15 919.698L702.149 919.697C701.919 920.74 701.681 921.798 701.436 922.862L697.538 921.964C697.783 920.904 698.02 919.85 698.248 918.813L698.251 918.801L698.254 918.789C698.506 917.71 698.766 916.615 699.03 915.513L702.919 916.445ZM57.1429 914.678L57.9633 916.374C58.2385 916.947 58.5156 917.528 58.7933 918.114L55.1781 919.825C54.629 918.665 54.0846 917.532 53.5482 916.433L53.5433 916.423L53.5394 916.414C53.0502 915.385 52.5726 914.372 52.1078 913.377L55.7318 911.685C56.1898 912.665 56.6605 913.663 57.1429 914.678ZM706.169 903.462C705.638 905.495 705.077 907.689 704.512 909.946L700.632 908.975C701.2 906.705 701.765 904.499 702.299 902.452L706.169 903.462ZM50.3168 899.543C51.1338 901.484 52.0164 903.515 52.9652 905.637L49.3138 907.269C48.3545 905.123 47.4597 903.066 46.6302 901.096L50.3168 899.543ZM709.771 890.643C709.447 891.895 709.124 892.994 708.815 893.864C708.567 894.67 708.258 895.738 707.902 897.015L704.049 895.939C704.413 894.636 704.735 893.523 704.998 892.668L705.013 892.623L705.029 892.578C705.286 891.864 705.58 890.874 705.898 889.642L709.771 890.643ZM45.5941 887.204C46.2369 889.13 46.983 891.195 47.8343 893.403L44.1019 894.842C43.2321 892.585 42.465 890.463 41.8002 888.471L45.5941 887.204ZM712.422 877.749C712.035 879.992 711.629 882.173 711.221 884.196L707.3 883.406C707.7 881.424 708.099 879.279 708.481 877.068L712.422 877.749ZM41.6869 871.91C42.2226 873.831 42.6794 875.795 43.0551 877.798L43.057 877.806C43.2368 878.784 43.4655 879.83 43.7445 880.946L39.8636 881.916C39.5669 880.729 39.3193 879.6 39.1224 878.528C38.768 876.64 38.3378 874.789 37.8343 872.984L41.6869 871.91ZM714.379 864.796C714.222 865.895 714.07 866.982 713.923 868.045L713.922 868.044C713.778 869.11 713.624 870.194 713.462 871.283L709.505 870.695C709.665 869.621 709.818 868.553 709.96 867.503V867.498C710.108 866.429 710.261 865.336 710.419 864.23L714.379 864.796ZM32.8734 852.735C33.3408 853.549 33.8533 854.412 34.4125 855.33C35.48 857.022 36.4663 858.78 37.3695 860.6L33.7865 862.379C32.9381 860.67 32.0128 859.021 31.0131 857.438L30.9955 857.411C30.4229 856.471 29.8926 855.578 29.4047 854.729L32.8734 852.735ZM716.353 851.817C716.021 853.86 715.677 856.055 715.336 858.301L711.381 857.7C711.724 855.443 712.07 853.233 712.405 851.175L716.353 851.817ZM29.1664 842.475C29.0697 843.831 29.3592 845.402 30.2279 847.521L26.5267 849.038C25.5199 846.583 25.0215 844.371 25.1771 842.189L29.1664 842.475ZM718.671 838.154C718.534 839.713 718.343 841.083 718.086 842.217L718.087 842.218C717.907 843.029 717.695 844.098 717.459 845.374L713.526 844.648C713.765 843.351 713.987 842.228 714.182 841.35L714.184 841.341C714.387 840.448 714.557 839.269 714.686 837.804L718.671 838.154ZM35.0375 832.538C34.4185 833.478 33.6486 834.439 32.7484 835.497C32.0741 836.33 31.5027 837.09 31.0258 837.804L27.7006 835.581C28.2653 834.736 28.9158 833.875 29.64 832.98L29.6556 832.961L29.6722 832.942C30.5549 831.907 31.2084 831.081 31.6976 830.338L35.0375 832.538ZM718.828 822.356C718.924 825.195 718.972 827.825 718.966 830.212L714.966 830.203C714.971 827.875 714.925 825.294 714.829 822.493L718.828 822.356ZM35.9125 815.794C36.1642 817.802 36.378 819.571 36.5316 820.9C36.7312 822.266 36.8782 823.471 36.9496 824.554L32.9584 824.816C32.8966 823.88 32.7651 822.786 32.5697 821.451L32.5619 821.391C32.41 820.075 32.1964 818.308 31.9437 816.292L35.9125 815.794ZM717.968 806.764C718.162 809.458 718.329 812.056 718.468 814.54L714.475 814.765C714.337 812.303 714.17 809.726 713.978 807.05L717.968 806.764ZM33.3099 796.072C33.4545 797.423 33.6329 798.861 33.8441 800.417C34.0801 802.029 34.3256 803.769 34.5687 805.542L30.6058 806.085C30.3639 804.321 30.1199 802.594 29.8861 800.997L29.8851 800.986L29.8842 800.977C29.6682 799.387 29.4827 797.902 29.3324 796.497L33.3099 796.072ZM716.667 791.207C716.916 793.855 717.148 796.45 717.36 798.979L713.374 799.312C713.163 796.798 712.933 794.217 712.685 791.581L716.667 791.207ZM33.9398 778.976C33.3127 782.063 32.9845 784.742 32.8998 787.464L28.9017 787.339C28.9945 784.359 29.3538 781.455 30.0189 778.18L33.9398 778.976ZM715.079 775.712C715.369 778.328 715.644 780.914 715.906 783.462L711.926 783.87C711.666 781.333 711.391 778.757 711.103 776.151L715.079 775.712ZM38.4193 762.003C38.0696 763.444 37.6951 764.871 37.3109 766.215L37.307 766.227L37.3041 766.238C36.8529 767.747 36.4397 769.157 36.0638 770.484L32.2152 769.395C32.5976 768.044 33.0159 766.615 33.4711 765.093C33.8367 763.812 34.1953 762.446 34.5316 761.06L38.4193 762.003ZM713.256 760.231C713.58 762.824 713.893 765.405 714.195 767.966L710.222 768.434C709.922 765.882 709.61 763.31 709.287 760.727L713.256 760.231ZM36.5736 748.899C36.5736 747.605 36.6364 746.274 36.7552 744.917L40.7396 745.267C40.6299 746.519 40.5736 747.732 40.5736 748.899C40.5736 750.111 40.405 751.707 40.141 753.45L36.1869 752.852C36.4415 751.17 36.5736 749.808 36.5736 748.899ZM711.226 744.788C711.582 747.361 711.929 749.937 712.267 752.508L708.301 753.029C707.964 750.467 707.619 747.9 707.264 745.336L711.226 744.788ZM43.8314 730.802C43.0515 733.226 42.3955 735.634 41.8812 737.983L37.974 737.128C38.5178 734.644 39.2081 732.112 40.0238 729.577L43.8314 730.802ZM708.987 729.37C709.376 731.923 709.759 734.494 710.133 737.074L706.174 737.649C705.801 735.078 705.42 732.517 705.033 729.974L708.987 729.37ZM49.5424 717.004C48.4157 719.215 47.367 721.491 46.4125 723.793L42.7172 722.261C43.7115 719.862 44.8046 717.492 45.9789 715.188L49.5424 717.004ZM706.52 713.982C706.947 716.516 707.369 719.085 707.785 721.68L703.835 722.312C703.421 719.728 703.001 717.17 702.576 714.647L706.52 713.982ZM57.4183 704.381C55.9627 706.27 54.5505 708.323 53.2025 710.497L49.8031 708.389C51.2154 706.111 52.7045 703.946 54.2504 701.939L57.4183 704.381ZM703.778 698.632C704.252 701.131 704.721 703.689 705.186 706.295L701.248 706.998C700.786 704.405 700.319 701.861 699.848 699.377L703.778 698.632ZM67.7679 694.014C66.9185 694.845 65.9929 695.654 64.9886 696.467L64.975 696.479C64.0755 697.193 63.1734 697.992 62.2738 698.869L59.4818 696.005C60.4631 695.048 61.4616 694.162 62.473 693.357L63.1508 692.798C63.8103 692.242 64.4141 691.699 64.9691 691.155L67.7679 694.014ZM700.659 683.324C701.201 685.782 701.741 688.34 702.278 690.981L698.358 691.777C697.825 689.156 697.289 686.621 696.752 684.187L700.659 683.324ZM74.8187 680.81C74.1867 683.535 73.3967 685.84 72.3451 687.894L68.7845 686.07C69.6502 684.38 70.3436 682.402 70.9222 679.906L74.8187 680.81ZM697.26 668.333C697.485 669.803 697.691 670.915 697.866 671.635L697.939 671.919L697.945 671.942C698.262 673.162 698.579 674.422 698.896 675.72L695.01 676.669C694.697 675.389 694.385 674.148 694.074 672.949C693.822 672.018 693.563 670.621 693.306 668.938L697.26 668.333ZM76.8959 667.3C76.7082 668.395 76.5571 669.366 76.4486 670.178C76.3193 671.41 76.1858 672.577 76.0433 673.685L72.0765 673.174C72.2158 672.092 72.3481 670.944 72.4759 669.723L72.4818 669.666C72.5988 668.789 72.7588 667.761 72.9535 666.624L76.8959 667.3ZM79.307 655.642C78.838 657.62 78.4016 659.592 78.0131 661.46L74.097 660.646C74.4928 658.743 74.9376 656.734 75.4154 654.719L79.307 655.642ZM695.534 653.031C695.776 655.749 696.033 658.347 696.293 660.718L692.317 661.154C692.053 658.753 691.794 656.128 691.549 653.387L695.534 653.031ZM82.4203 643.843C82.1468 644.932 81.8691 645.987 81.5912 646.991L81.5863 647.011L81.5804 647.029C81.3081 647.943 81.0368 648.897 80.7699 649.876L76.9115 648.824C77.1819 647.832 77.4571 646.861 77.7357 645.925L78.139 644.431C78.2732 643.921 78.407 643.399 78.5404 642.868L82.4203 643.843ZM694.65 641.456L694.651 641.47C694.732 642.752 694.82 644.04 694.912 645.325L690.922 645.613C690.829 644.322 690.741 643.026 690.66 641.736L690.392 638.104L694.38 637.797L694.65 641.456ZM85.1693 631.183C84.7838 633.244 84.3508 635.394 83.889 637.528L79.9799 636.683C80.4337 634.585 80.8591 632.472 81.2377 630.447L85.1693 631.183ZM693.003 623.199C693.27 625.537 693.522 627.969 693.759 630.497L689.777 630.87C689.542 628.367 689.293 625.962 689.03 623.653L693.003 623.199ZM87.099 617.979C86.9416 619.188 86.8036 620.368 86.6849 621.515L86.684 621.522L86.683 621.529C86.5747 622.503 86.4289 623.6 86.2533 624.783L82.2972 624.196C82.4676 623.048 82.6058 622.002 82.7074 621.088C82.8296 619.908 82.9712 618.699 83.1322 617.463L87.099 617.979ZM690.936 608.637C691.34 610.937 691.722 613.361 692.08 615.912L688.119 616.469C687.766 613.958 687.392 611.58 686.996 609.329L690.936 608.637ZM89.515 603.879C89.0181 606.283 88.5696 608.636 88.1752 610.919L84.2338 610.238C84.6362 607.909 85.092 605.513 85.597 603.069L89.515 603.879ZM687.634 594.197C688.296 596.414 688.915 598.81 689.495 601.391L685.593 602.268C685.03 599.764 684.433 597.459 683.801 595.341L687.634 594.197ZM92.8011 589.909C92.1869 592.251 91.6073 594.577 91.0658 596.874L87.1732 595.956C87.7225 593.626 88.3095 591.268 88.932 588.895L92.8011 589.909ZM681.769 580.522C682.309 581.447 682.782 582.28 683.169 582.994L683.528 583.668L683.531 583.673C684.087 584.75 684.621 585.899 685.134 587.12L681.447 588.67C680.971 587.537 680.48 586.485 679.976 585.509C679.581 584.75 679.018 583.742 678.316 582.54L681.769 580.522ZM96.7719 576.104C96.0561 578.391 95.3656 580.689 94.7054 582.984L90.8617 581.879C91.5304 579.554 92.2294 577.227 92.9545 574.91L96.7719 576.104ZM674.265 568.54C675.612 570.586 676.904 572.596 678.086 574.477L674.7 576.604C673.533 574.749 672.256 572.762 670.924 570.74L674.265 568.54ZM101.391 562.51C100.572 564.733 99.7729 566.993 98.9974 569.277L95.2103 567.991C95.9963 565.676 96.806 563.383 97.6371 561.127L101.391 562.51ZM668.303 559.812C668.971 560.751 669.645 561.712 670.318 562.686L667.027 564.959C666.359 563.993 665.691 563.04 665.03 562.11L665.023 562.1L665.015 562.089C664.334 561.106 663.577 560.006 662.758 558.812L666.057 556.55C666.873 557.741 667.627 558.835 668.303 559.812ZM106.941 548.969C106.298 550.297 105.754 551.483 105.322 552.507C104.865 553.594 104.412 554.697 103.964 555.814L100.251 554.325C100.708 553.188 101.169 552.064 101.635 550.955L101.636 550.951C102.103 549.846 102.678 548.595 103.341 547.226L106.941 548.969ZM661.582 549.985L658.273 552.231C656.856 550.143 655.355 547.925 653.812 545.638L657.128 543.4C658.67 545.685 660.168 547.901 661.582 549.985ZM114.436 534.915C113.051 537.366 111.752 539.713 110.576 541.903L107.052 540.011C108.245 537.791 109.557 535.418 110.953 532.946L114.436 534.915ZM652.69 536.806L649.369 539.035C647.886 536.827 646.398 534.606 644.939 532.423L648.265 530.2C649.723 532.381 651.209 534.6 652.69 536.806ZM122.512 521.099C121.122 523.408 119.753 525.715 118.426 527.982L114.974 525.963C116.309 523.681 117.687 521.359 119.085 519.036L122.512 521.099ZM638.982 516.262C639.848 517.547 640.74 518.885 641.66 520.277C642.369 521.348 643.103 522.454 643.856 523.586L640.525 525.8C639.771 524.666 639.036 523.56 638.326 522.487L638.324 522.484C637.41 521.101 636.525 519.773 635.665 518.498L638.982 516.262ZM130.926 507.484C129.528 509.685 128.105 511.958 126.68 514.265L123.277 512.162C124.71 509.842 126.143 507.555 127.55 505.34L130.926 507.484ZM627.649 500.556C629.445 502.81 631.377 505.383 633.478 508.317L630.225 510.646C628.155 507.754 626.264 505.238 624.52 503.048L627.649 500.556ZM139.715 494.155C138.33 496.156 136.833 498.381 135.263 500.769L131.921 498.571C133.505 496.163 135.02 493.91 136.427 491.878L139.715 494.155ZM613.642 487.129C614.633 487.79 615.582 488.451 616.489 489.112L617.38 489.773L617.421 489.805C618.619 490.756 619.858 491.869 621.158 493.169L618.329 495.997C617.124 494.792 616.003 493.787 614.947 492.947C613.851 492.123 612.675 491.292 611.421 490.456L613.642 487.129ZM149.445 482.685C148.312 483.563 147.425 484.316 146.804 484.922C146.21 485.502 145.392 486.45 144.369 487.757L141.219 485.292C142.275 483.943 143.223 482.828 144.01 482.06C144.785 481.303 145.804 480.446 146.994 479.523L149.445 482.685ZM597.829 478.243C600.676 479.625 603.358 481.015 605.863 482.409L603.917 485.904C601.484 484.55 598.869 483.194 596.083 481.842L597.829 478.243ZM161.496 474.46C159.305 475.844 157.229 477.193 155.344 478.466L153.107 475.15C155.032 473.851 157.141 472.479 159.361 471.077L161.496 474.46ZM581.295 471.048C584.18 472.181 586.959 473.327 589.625 474.483L588.035 478.153C585.413 477.017 582.676 475.888 579.832 474.771L581.295 471.048ZM564.37 464.955C567.281 465.917 570.117 466.894 572.872 467.884L571.52 471.648C568.798 470.67 565.994 469.704 563.116 468.753L564.37 464.955ZM174.092 466.878C171.977 468.094 169.846 469.348 167.752 470.607L165.69 467.18C167.806 465.907 169.961 464.64 172.099 463.41L174.092 466.878ZM551.504 460.95C552.954 461.375 554.388 461.804 555.807 462.236L554.64 466.062C553.234 465.634 551.811 465.209 550.374 464.788L550.37 464.786C549.038 464.392 547.723 464.003 546.428 463.616L547.572 459.783C548.863 460.169 550.175 460.557 551.504 460.95ZM186.989 459.855C184.967 460.88 182.78 462.037 180.502 463.281L178.584 459.771C180.891 458.511 183.115 457.335 185.18 456.288L186.989 459.855ZM531.893 454.988C534.413 455.781 537.022 456.589 539.724 457.414L538.555 461.239C535.844 460.411 533.224 459.6 530.693 458.804L531.893 454.988ZM202.038 454.305C199.646 454.807 197.825 455.239 196.827 455.555L196.793 455.564L196.759 455.574C195.968 455.794 194.889 456.189 193.547 456.757L191.989 453.073C193.396 452.478 194.656 452.006 195.689 451.72C196.905 451.341 198.876 450.882 201.217 450.391L202.038 454.305ZM516.328 449.908C518.797 450.749 521.381 451.609 524.084 452.49L522.846 456.294C520.127 455.408 517.525 454.542 515.038 453.694L516.328 449.908ZM222.5 450.534C220.913 450.815 219.522 451.059 218.368 451.259C216.573 451.569 214.729 451.894 212.905 452.223L212.197 448.285C214.031 447.955 215.884 447.629 217.686 447.317C218.835 447.119 220.221 446.876 221.804 446.596L222.5 450.534ZM500.966 444.344C503.346 445.272 505.891 446.224 508.606 447.204L507.248 450.967C504.505 449.977 501.928 449.012 499.513 448.07L500.966 444.344ZM239.026 447.545C236.114 448.082 233.335 448.588 230.765 449.054L230.053 445.118C232.619 444.654 235.394 444.147 238.301 443.611L239.026 447.545ZM255.531 444.444C252.765 444.975 249.997 445.5 247.28 446.01L246.542 442.078C249.255 441.569 252.018 441.046 254.778 440.517L255.531 444.444ZM486.134 437.815C488.282 438.922 490.715 440.067 493.447 441.256L491.851 444.924C489.056 443.708 486.543 442.526 484.302 441.371L486.134 437.815ZM272.059 441.212L267.887 442.029L267.886 442.028C266.534 442.299 265.162 442.572 263.776 442.845L263.004 438.92C264.389 438.647 265.76 438.375 267.11 438.105L267.118 438.104L271.289 437.286L272.059 441.212ZM288.746 437.942L280.403 439.577L279.633 435.651L287.977 434.017L288.746 437.942ZM474.326 429.291C474.979 430.082 475.57 430.714 476.054 431.153L476.255 431.33L476.294 431.363L476.332 431.399C477.143 432.161 478.128 432.954 479.305 433.78L477.007 437.055C475.724 436.154 474.598 435.253 473.631 434.349C472.868 433.696 472.046 432.813 471.242 431.839L474.326 429.291ZM304.331 432.944L302.277 434.957L301.849 435.375L297.09 436.308L296.321 432.383L299.905 431.68L301.533 430.087L304.331 432.944ZM313.979 423.32C312.805 424.601 311.622 425.821 310.494 426.908L308.44 428.921L305.641 426.062L307.696 424.051L307.702 424.045L307.708 424.039C308.77 423.017 309.897 421.853 311.031 420.617L313.979 423.32ZM468.398 419.97L469.339 421.672L469.357 421.703L469.372 421.735C469.784 422.557 470.282 423.447 470.835 424.352L467.422 426.437C466.835 425.476 466.292 424.51 465.828 423.588L464.909 421.926C464.574 421.328 464.213 420.692 463.833 420.031L467.303 418.04C467.689 418.712 468.056 419.36 468.398 419.97ZM325.61 406.717C324.996 408.271 324.182 409.783 323.233 411.397C322.501 412.652 321.506 414.11 320.368 415.637L317.161 413.247C318.249 411.786 319.15 410.46 319.779 409.382L319.783 409.376C320.695 407.825 321.387 406.518 321.889 405.248L325.61 406.717ZM458.935 404.586C459.441 405.501 460.022 406.438 460.686 407.423C461.426 408.469 462.212 409.656 463.004 410.899L459.63 413.048C458.853 411.827 458.096 410.686 457.399 409.702L457.385 409.684L457.372 409.664C456.655 408.6 456.009 407.56 455.435 406.522L458.935 404.586ZM456.002 392.073C455.967 394.569 456.163 396.67 456.596 398.587L452.694 399.468C452.177 397.18 451.965 394.755 452.003 392.017L456.002 392.073ZM324.464 386.054C325.544 390.054 326.261 393.267 326.622 395.983L322.658 396.51C322.33 394.048 321.664 391.031 320.602 387.097L324.464 386.054ZM457.597 378.739C457.374 379.717 457.17 380.751 456.984 381.846L456.733 383.609C456.655 384.181 456.584 384.737 456.518 385.278L452.546 384.797C452.683 383.674 452.843 382.496 453.027 381.259L453.03 381.239L453.034 381.219C453.232 380.043 453.453 378.92 453.698 377.848L457.597 378.739ZM320.23 371.739L321.687 376.485L317.86 377.647C317.408 376.161 316.925 374.589 316.409 372.923L316.406 372.911C316.072 371.81 315.755 370.773 315.453 369.796L319.275 368.615C319.578 369.597 319.896 370.637 320.23 371.739ZM462.722 367.844C461.465 369.137 460.397 370.753 459.497 372.786L455.84 371.167C456.898 368.776 458.214 366.743 459.854 365.056L462.722 367.844ZM473.364 362.798C472.388 363.153 471.39 363.466 470.416 363.709C469.374 363.969 468.418 364.28 467.538 364.643L466.012 360.945C467.092 360.499 468.237 360.13 469.447 359.828C470.267 359.623 471.13 359.354 471.995 359.039L473.364 362.798ZM314.783 356.053C315.59 357.727 316.38 359.766 317.259 362.343L313.473 363.635C312.616 361.121 311.886 359.254 311.18 357.79L314.783 356.053ZM484.106 354.777C483.328 356.011 482.509 357.124 481.648 358.076C480.972 358.827 479.973 359.548 478.915 360.188L476.847 356.764C477.788 356.195 478.393 355.715 478.676 355.4L478.679 355.397C479.352 354.653 480.036 353.733 480.721 352.646L484.106 354.777ZM304.337 345.592C305.363 346.414 306.478 347.221 307.693 348.035L307.708 348.046L307.723 348.056C308.735 348.761 309.654 349.445 310.494 350.191L307.837 353.182C307.167 352.587 306.393 352.005 305.436 351.338C304.159 350.481 302.959 349.613 301.835 348.713L304.337 345.592ZM490.312 340.428C489.495 343.017 488.612 345.471 487.672 347.723L483.981 346.183C484.867 344.059 485.709 341.72 486.496 339.225L490.312 340.428ZM295.299 332.55C296.247 335.416 297.402 337.754 298.801 339.78L295.51 342.054C293.867 339.676 292.553 336.985 291.501 333.806L295.299 332.55ZM494.036 325.513C493.545 328.053 492.993 330.568 492.387 333.015L488.504 332.053C489.093 329.676 489.631 327.23 490.109 324.754L494.036 325.513ZM292.36 316.027C292.634 319.162 292.972 321.953 293.386 324.455L289.44 325.107C289.006 322.482 288.656 319.587 288.375 316.376L292.36 316.027ZM496.194 310.312C495.97 312.816 495.672 315.374 495.306 317.942L491.346 317.378C491.703 314.875 491.992 312.387 492.209 309.956L496.194 310.312ZM291.5 298.914C291.577 301.976 291.675 304.825 291.801 307.482L287.806 307.672C287.679 304.979 287.579 302.099 287.502 299.014L291.5 298.914ZM496.495 294.856C496.665 297.277 496.709 299.887 496.642 302.616L492.643 302.518C492.707 299.891 492.664 297.409 492.505 295.136L496.495 294.856ZM291.305 285.968V285.97C291.316 287.447 291.329 288.886 291.346 290.287L287.347 290.334C287.33 288.928 287.316 287.484 287.305 286.003L287.28 282.433L291.28 282.411L291.305 285.968ZM492.567 279.041C492.875 280.699 493.24 281.819 493.65 282.671L493.828 283.021L493.839 283.04L493.85 283.061C494.445 284.221 494.922 285.551 495.303 286.997L491.436 288.018C491.107 286.771 490.721 285.726 490.29 284.886C489.561 283.527 489.033 281.915 488.634 279.772L492.567 279.041ZM291.283 268.179C291.27 270.573 291.263 272.955 291.262 275.297L287.262 275.296C287.263 272.947 287.27 270.558 287.283 268.157L291.283 268.179ZM491.382 260.166C491.454 263.928 491.549 267.075 491.677 269.728L487.682 269.921C487.551 267.215 487.455 264.026 487.382 260.242L491.382 260.166ZM291.426 253.941C291.391 256.277 291.361 258.66 291.337 261.061L287.337 261.021C287.361 258.614 287.391 256.223 287.426 253.881L291.426 253.941ZM491.219 245.726V245.733C491.23 247.412 491.242 249.015 491.255 250.546L487.255 250.581C487.242 249.049 487.23 247.446 487.219 245.767L487.177 241.638L491.177 241.598L491.219 245.726ZM291.728 239.714C291.663 241.957 291.605 244.341 291.553 246.825L287.554 246.742C287.606 244.249 287.664 241.853 287.729 239.599L291.728 239.714ZM491.093 233.34L487.093 233.381L487.009 225.123L491.009 225.083L491.093 233.34ZM292.475 223.44L292.14 229.087L292.141 229.088C292.083 230.166 292.026 231.347 291.973 232.618L287.977 232.451C288.031 231.167 288.088 229.969 288.147 228.872V228.862L288.483 223.203L292.475 223.44ZM490.672 211.822L490.878 212.235L490.925 216.825L486.925 216.866L486.887 213.196L485.124 209.672L488.702 207.882L490.672 211.822ZM295.643 202.21L293.458 206.847L293.146 212.123L289.154 211.886L289.511 205.843L289.676 205.494L292.024 200.506L295.643 202.21ZM480.932 192.536C481.611 193.769 482.232 194.949 482.789 196.062L484.76 200.002L481.183 201.792L479.212 197.852C478.683 196.792 478.085 195.66 477.427 194.464L480.932 192.536ZM304.281 183.905C303.761 184.984 303.229 186.096 302.686 187.245L300.338 192.233L296.72 190.53L299.068 185.542L299.069 185.539C299.616 184.382 300.152 183.258 300.677 182.169L304.281 183.905ZM472.732 179.036C474.222 181.325 475.636 183.559 476.945 185.701L473.532 187.787C472.245 185.682 470.851 183.479 469.379 181.218L472.732 179.036ZM310.991 170.827C309.887 172.792 308.745 174.943 307.545 177.299L303.981 175.483C305.2 173.091 306.368 170.892 307.503 168.869L310.991 170.827ZM463.871 166.034C465.396 168.183 466.901 170.343 468.364 172.487L465.06 174.741C463.612 172.618 462.121 170.479 460.61 168.35L463.871 166.034ZM319.074 158.952C317.647 160.546 316.225 162.412 314.759 164.615L311.429 162.399C312.977 160.073 314.514 158.05 316.093 156.285L319.074 158.952ZM454.537 153.379C456.097 155.411 457.68 157.516 459.262 159.662L456.043 162.036C454.475 159.909 452.908 157.825 451.365 155.814L454.537 153.379ZM330.367 151.188C328.112 152.024 326.105 153.042 324.232 154.336L321.957 151.045C324.135 149.54 326.446 148.376 328.977 147.438L330.367 151.188ZM444.61 141.118C446.208 142.96 447.908 145.001 449.671 147.188L446.557 149.698C444.818 147.542 443.149 145.539 441.588 143.739L444.61 141.118ZM344.786 147.828C343.361 148.168 342.018 148.44 340.786 148.63L340.786 148.631C339.534 148.839 338.346 149.058 337.215 149.293L336.403 145.376C337.595 145.129 338.835 144.901 340.128 144.686L340.154 144.682C341.261 144.511 342.503 144.261 343.859 143.938L344.786 147.828ZM360.078 142.92C357.508 143.904 354.969 144.81 352.54 145.604L351.298 141.801C353.656 141.031 356.133 140.148 358.647 139.185L360.078 142.92ZM374.737 136.566C372.403 137.706 369.957 138.829 367.473 139.904L365.884 136.233C368.317 135.181 370.707 134.084 372.981 132.973L374.737 136.566ZM432.523 129.985C433.481 130.611 434.398 131.241 435.256 131.868L436.094 132.495L436.102 132.5C437.028 133.215 438.068 134.154 439.189 135.26L436.379 138.106C435.324 137.065 434.414 136.251 433.665 135.673L432.895 135.097C432.102 134.517 431.245 133.927 430.336 133.334L432.523 129.985ZM388.139 128.981C387.168 129.58 386.21 130.174 385.31 130.736C384.234 131.427 383.072 132.127 381.841 132.83L379.857 129.357C381.037 128.683 382.141 128.018 383.151 127.37L383.161 127.364L383.17 127.357C384.082 126.788 385.054 126.184 386.04 125.576L388.139 128.981ZM417.36 121.881C419.879 122.983 422.519 124.26 425.09 125.627L423.212 129.159C420.728 127.838 418.18 126.605 415.757 125.545L417.36 121.881ZM398.552 123.2C397.848 123.447 397.215 123.709 396.697 123.969C396.015 124.31 395.035 124.854 393.862 125.535L391.853 122.077C393.042 121.387 394.11 120.79 394.909 120.391C395.611 120.039 396.405 119.714 397.23 119.425L398.552 123.2ZM404.524 118C405.832 118 407.471 118.337 409.213 118.839L408.106 122.683C406.463 122.209 405.258 122 404.524 122C403.984 122 403.324 122.059 402.584 122.176L401.96 118.225C402.841 118.086 403.718 118 404.524 118Z" fill="url(#paint0_linear_1_988)"/>
</g>
<defs>
<linearGradient id="paint0_linear_1_988" x1="372.058" y1="120.001" x2="372.058" y2="833.841" gradientUnits="userSpaceOnUse">
<stop stop-color="white" stop-opacity="0.3"/>
<stop offset="1" stop-color="white" stop-opacity="0"/>
</linearGradient>
<clipPath id="clip0_1_988">
<rect width="748" height="768" fill="white"/>
</clipPath>
</defs>
</svg>
