<svg width="300" height="300" viewBox="0 0 300 300" fill="none" xmlns="http://www.w3.org/2000/svg">
<path d="M150 21.2856C168.384 21.2858 186.59 25.2478 203.575 32.9482C220.56 40.6488 235.995 51.9363 248.995 66.1652C261.995 80.3937 272.308 97.2857 279.343 115.876C285.912 133.234 289.505 151.758 289.952 170.517C290.005 172.725 288.209 174.517 286 174.517H252.63C263.92 187.84 272.979 203.257 279.343 220.074C285.912 237.432 289.505 255.955 289.952 274.715C290.005 276.923 288.209 278.715 286 278.715H14C11.7909 278.715 9.99501 276.923 10.0477 274.715C10.4952 255.955 14.0879 237.432 20.657 220.074C27.0211 203.258 36.075 187.839 47.365 174.517H14C11.7909 174.517 9.99502 172.725 10.0477 170.517C10.4953 151.758 14.0879 133.234 20.657 115.876C27.6926 97.2857 38.0051 80.3936 51.0048 66.1652C64.0048 51.9365 79.4402 40.6488 96.4254 32.9482C113.41 25.2481 131.616 21.2856 150 21.2856Z" fill="#ED474A"/>
</svg>
