<svg width="300" height="300" viewBox="0 0 300 300" fill="none" xmlns="http://www.w3.org/2000/svg">
<path d="M6.99999 150.003C7 124.761 13.644 99.9634 26.2646 78.1036C38.8855 56.2435 57.0389 38.0901 78.899 25.4692C96.1317 15.5198 115.189 9.28265 134.852 7.08873C143.621 6.11027 150.798 13.358 150.798 22.1821L150.798 32.8338C194.164 32.8338 232.02 56.3957 252.28 91.413L261.491 86.0923C269.133 81.6804 278.997 84.2709 282.535 92.3544C290.466 110.48 294.596 130.104 294.596 150.003C294.596 175.244 287.952 200.042 275.331 221.902C262.711 243.762 244.557 261.915 222.697 274.536C205.465 284.485 186.406 290.717 166.744 292.911C157.975 293.89 150.798 286.647 150.798 277.823L150.798 267.171C107.434 267.171 69.5709 243.613 49.3104 208.597L40.1045 213.913C32.4632 218.325 22.5994 215.733 19.0612 207.651C11.1299 189.526 7.00009 169.901 6.99999 150.003Z" fill="#5B72B7"/>
</svg>
