<svg width="300" height="300" viewBox="0 0 300 300" fill="none" xmlns="http://www.w3.org/2000/svg">
<path d="M199.777 9.99951C249.606 9.99951 290 50.3938 290 100.222C290 118.621 284.491 135.732 275.035 150C284.491 164.267 290 181.379 290 199.778C290 249.606 249.606 290 199.777 290C181.379 290 164.267 284.492 150 275.036C135.733 284.492 118.621 290 100.223 290C50.3943 290 10 249.606 10 199.778C10 181.379 15.5078 164.267 24.9639 150C15.5081 135.732 10.0001 118.621 10 100.222C10 50.3938 50.3943 9.99951 100.223 9.99951C118.621 9.9996 135.733 15.5076 150 24.9634C164.267 15.5076 181.379 9.99958 199.777 9.99951Z" fill="#F6E24A"/>
</svg>
