<svg width="68" height="68" viewBox="0 0 68 68" fill="none" xmlns="http://www.w3.org/2000/svg">
<path d="M34 11C37.283 11 40.5342 11.647 43.5674 12.9033C46.6004 14.1597 49.3563 16.0009 51.6777 18.3223C53.9992 20.6437 55.8413 23.3995 57.0977 26.4326C58.2263 29.1575 58.8624 32.0584 58.98 35.0002C59.0021 35.5521 58.5523 36 58 36H54.6196C53.7467 36 53.2749 37.0574 53.8076 37.7488C55.1467 39.4869 56.2544 41.3969 57.0977 43.4326C58.2263 46.1575 58.8624 49.0584 58.98 52.0002C59.0021 52.5521 58.5523 53 58 53H10C9.44771 53 8.99791 52.5521 9.02001 52.0002C9.13779 49.0584 9.77463 46.1575 10.9033 43.4326C11.7465 41.3971 12.8538 39.4869 14.1925 37.7489C14.7252 37.0574 14.2533 36 13.3804 36H10C9.44772 36 8.99791 35.5521 9.02001 35.0002C9.13779 32.0584 9.77463 29.1575 10.9033 26.4326C12.1597 23.3996 14.0009 20.6436 16.3223 18.3223C18.6437 16.0008 21.4005 14.1597 24.4336 12.9033C27.4666 11.6471 30.7171 11 34 11Z" fill="#ED474A"/>
</svg>
