<svg width="300" height="300" viewBox="0 0 300 300" fill="none" xmlns="http://www.w3.org/2000/svg">
<path d="M41.6085 92.4654C79.4931 32.137 129.804 -6.36513 153.98 6.46657C169.126 14.5063 170.416 40.7873 159.954 74.1345C177.012 63.6806 193.357 60.3529 205.147 66.6111C215.589 72.154 220.737 84.3013 220.863 100.074C245.471 77.8489 268.913 67.477 283.213 75.066C307.388 87.8984 296.275 147.207 258.39 207.536C220.506 267.863 170.199 306.366 146.024 293.535C131.723 285.944 129.773 262.092 138.405 231.385C123.485 239.17 109.467 241.143 99.025 235.6C87.239 229.344 82.1847 214.674 83.4982 195.873C57.3238 220.866 31.9285 232.973 16.7855 224.935C-7.3875 212.101 3.72486 152.793 41.6085 92.4654Z" fill="#5B72B7"/>
</svg>
