<svg width="68" height="68" viewBox="0 0 68 68" fill="none" xmlns="http://www.w3.org/2000/svg">
<path d="M58 34C59.6569 34 61.0172 32.6527 60.8335 31.0061C60.4216 27.3142 59.2508 23.7357 57.3827 20.5C55.0129 16.3955 51.6045 12.9871 47.5 10.6173C43.3955 8.24757 38.7395 7 34 7C30.2637 7 26.5793 7.77533 23.176 9.26455C21.6581 9.92877 21.1716 11.7805 22 13.2154L28.2805 24.0935C29.1089 25.5283 30.9545 25.9571 32.588 25.6799C33.0528 25.601 33.525 25.5609 34 25.5609C35.4814 25.5609 36.9366 25.9509 38.2195 26.6915C39.5024 27.4322 40.5678 28.4976 41.3085 29.7805C41.5459 30.1918 41.7474 30.6208 41.9114 31.0628C42.4881 32.616 43.7822 34 45.4391 34H58Z" fill="#F8E86E"/>
<path d="M10 34C8.34315 34 6.98278 35.3472 7.16649 36.9939C7.57841 40.6858 8.74916 44.2643 10.6173 47.5C12.9871 51.6045 16.3955 55.0129 20.5 57.3827C24.6045 59.7524 29.2605 61 34 61C37.7363 61 41.4207 60.2247 44.824 58.7354C46.3419 58.0712 46.8284 56.2195 46 54.7846L39.7195 43.9065C38.8911 42.4717 37.0455 42.0429 35.412 42.3201C34.9472 42.399 34.475 42.4391 34 42.4391C32.5186 42.4391 31.0634 42.0491 29.7805 41.3085C28.4976 40.5678 27.4322 39.5024 26.6915 38.2195C26.4541 37.8082 26.2526 37.3792 26.0886 36.9372C25.5119 35.384 24.2178 34 22.5609 34L10 34Z" fill="#F8E86E"/>
</svg>
