<svg width="300" height="300" viewBox="0 0 300 300" fill="none" xmlns="http://www.w3.org/2000/svg">
<path d="M37.11 31.5446C58.1264 19.4108 84.0677 23.5606 100.35 40.0665C114.508 34.329 129.985 31.1603 146.2 31.1603C164.511 31.1605 181.877 35.1975 197.468 42.4174C201.151 38.2002 205.572 34.5003 210.692 31.5446C235.659 17.1301 267.587 25.6862 282.002 50.6531C296.183 75.2175 288.118 106.501 264.076 121.233C266.852 131.455 268.348 142.207 268.349 153.309C268.349 220.769 213.661 275.456 146.2 275.457C78.7393 275.457 24.052 220.77 24.052 153.309C24.0523 140.562 25.9982 128.271 29.6203 116.719C25.0918 112.913 21.1303 108.274 18.0015 102.855C3.58707 77.8881 12.1435 45.9594 37.11 31.5446Z" fill="#ED474A"/>
</svg>
