<svg width="100" height="100" viewBox="0 0 100 100" fill="none" xmlns="http://www.w3.org/2000/svg">
<g clip-path="url(#clip0_9_108)">
<path d="M52.6195 25.3707C51.6826 24.642 51.2142 24.2777 50.6969 24.1376C50.2405 24.014 49.7595 24.014 49.3031 24.1376C48.7858 24.2777 48.3174 24.642 47.3805 25.3707L29.2944 39.4377C28.0854 40.378 27.4809 40.8481 27.0454 41.4369C26.6596 41.9585 26.3723 42.5461 26.1974 43.1708C26 43.876 26 44.6419 26 46.1735V65.4666C26 68.4536 26 69.947 26.5813 71.0879C27.0926 72.0914 27.9085 72.9073 28.9121 73.4187C30.0529 74 31.5464 74 34.5333 74H39.8667C40.6134 74 40.9868 74 41.272 73.8546C41.5229 73.7268 41.7268 73.5228 41.8547 73.2719C42 72.9867 42 72.6134 42 71.8666V54.2666C42 52.7731 42 52.0264 42.2906 51.456C42.5463 50.9542 42.9543 50.5463 43.456 50.2906C44.0265 50 44.7732 50 46.2667 50H53.7333C55.2268 50 55.9735 50 56.544 50.2906C57.0457 50.5463 57.4537 50.9542 57.7094 51.456C58 52.0264 58 52.7731 58 54.2666V71.8666C58 72.6134 58 72.9867 58.1453 73.2719C58.2732 73.5228 58.4771 73.7268 58.728 73.8546C59.0132 74 59.3866 74 60.1333 74H65.4667C68.4536 74 69.9471 74 71.088 73.4187C72.0915 72.9073 72.9074 72.0914 73.4187 71.0879C74 69.947 74 68.4536 74 65.4666V46.1735C74 44.6419 74 43.876 73.8026 43.1708C73.6277 42.5461 73.3404 41.9585 72.9546 41.4369C72.5191 40.8481 71.9146 40.378 70.7056 39.4377L52.6195 25.3707Z" stroke="#878A93" stroke-width="4" stroke-linecap="round" stroke-linejoin="round"/>
</g>
<defs>
<clipPath id="clip0_9_108">
<rect width="100" height="100" rx="24" fill="white"/>
</clipPath>
</defs>
</svg>
